<?xml version="1.0" encoding="UTF-8"?>
<svg id="Capa_2" data-name="Capa 2" xmlns="http://www.w3.org/2000/svg" xmlns:xlink="http://www.w3.org/1999/xlink" viewBox="0 0 503.27 503">
  <defs>
    <style>
      .cls-1, .cls-2, .cls-3, .cls-4, .cls-5 {
        stroke: #073425;
        stroke-width: 6px;
      }

      .cls-1, .cls-3, .cls-4, .cls-6, .cls-5 {
        stroke-miterlimit: 10;
      }

      .cls-1, .cls-6 {
        fill: none;
      }

      .cls-2 {
        stroke-linecap: round;
        stroke-linejoin: round;
      }

      .cls-2, .cls-7, .cls-8 {
        fill: #fff;
      }

      .cls-3 {
        fill: #c5d4c4;
      }

      .cls-4, .cls-9 {
        fill: #12ab51;
      }

      .cls-10, .cls-11, .cls-8, .cls-12, .cls-13 {
        stroke-width: 0px;
      }

      .cls-10, .cls-5 {
        fill: #12a950;
      }

      .cls-11 {
        fill: #073425;
      }

      .cls-6 {
        stroke: #00f49c;
      }

      .cls-14 {
        clip-path: url(#clippath);
      }

      .cls-12 {
        fill: #93bca7;
      }

      .cls-13 {
        fill: #fefefe;
      }
    </style>
    <clipPath id="clippath">
      <circle class="cls-4" cx="251.7" cy="251.61" r="141.73"/>
    </clipPath>
  </defs>
  <g id="Capa_2-2" data-name="Capa 2">
    <g>
      <path class="cls-8" d="M322.78,62.79c3.31,0,6,2.69,6,6,0,1.52-.01,3.04-.03,4.54h32.33c3.31,0,6,2.69,6,6v.38c0,4.3-.25,8.63-.75,12.85-.35,3.01-.84,5.98-1.43,8.92,44.97,34.23,74.06,88.31,74.06,149.06,0,16.88-2.26,33.25-6.47,48.82.03.01.06.03.1.04l.95.38c5.72,2.31,8.76,8.58,7.02,14.51l-.28.96c-4.14,14-8.28,28.03-12.42,42.07,5.97,2.4,11.93,4.82,17.81,7.26l.98.41c5.66,2.35,8.63,8.59,6.9,14.47l-5.69,19.22c-.96,3.25-3.26,5.95-6.32,7.41-1.57.75-3.27,1.14-4.98,1.17l-31.59,21.53,19.1,39.35-69.47-27.5v12.31l-3.84-1.12c-31.94-9.28-64.79-13.92-97.64-13.92s-65.7,4.64-97.64,13.92l-3.84,1.12v-14.53l-69.36,27.45,19.1-39.35-34.88-23.77,10.32-3.23c-2.65-1.49-4.66-3.93-5.58-6.85l-.29-.94c-4.21-13.38-8.42-26.74-12.63-40.09-.64.27-1.27.54-1.91.82l-.93.4c-1.52.65-3.13.98-4.75.98-1.7,0-3.41-.36-4.99-1.09-3.09-1.41-5.43-4.06-6.45-7.3l-5.89-18.63c-1.86-5.87,1.02-12.19,6.67-14.64l.98-.42c9.86-4.26,19.83-8.47,29.82-12.59-4.18-15.51-6.42-31.81-6.42-48.63,0-60.84,29.17-114.99,74.26-149.21-.58-2.89-1.06-5.81-1.4-8.76-.5-4.23-.75-8.56-.75-12.86v-.38c0-3.31,2.69-6,6-6h32.52c-.02-1.51-.03-3.02-.03-4.54,0-3.31,2.69-6,6-6h141.75M322.78,52.79h-141.75c-6.91,0-12.81,4.4-15.04,10.54h-23.44c-8.82,0-16,7.18-16,16v.38c0,4.69.28,9.41.82,14.03.13,1.12.28,2.26.45,3.41-21.59,17.49-39.52,39.59-52.07,64.27-14.14,27.8-21.31,57.78-21.31,89.12,0,14.38,1.57,28.7,4.66,42.68-7.61,3.18-14.99,6.31-22.04,9.36l-.97.42c-10.4,4.51-15.66,16.04-12.24,26.84l5.89,18.63c1.87,5.92,6.18,10.79,11.83,13.38,2.89,1.32,5.97,1.99,9.15,1.99.32,0,.63,0,.94-.02,3.19,10.13,6.39,20.28,9.58,30.43-2.47,1.53-4.2,4.08-4.64,7.04-.56,3.79,1.09,7.57,4.26,9.73l27.74,18.91-15.33,31.58c-1.8,3.71-1.14,8.14,1.67,11.17,1.93,2.08,4.6,3.2,7.33,3.2,1.24,0,2.48-.23,3.68-.7l55.68-22.04c.06,3.08,1.53,5.96,3.99,7.82,1.75,1.32,3.86,2,6,2,.93,0,1.87-.13,2.79-.4l3.84-1.12c30.88-8.97,62.79-13.52,94.84-13.52s63.97,4.55,94.85,13.52l3.84,1.11c.92.27,1.86.4,2.79.4,2.14,0,4.25-.69,6-2,1.89-1.42,3.2-3.45,3.73-5.7l56.06,22.19c1.19.47,2.44.7,3.68.7,2.73,0,5.4-1.12,7.33-3.2,2.8-3.02,3.47-7.46,1.67-11.17l-15.33-31.58,22.37-15.25c1.99-.34,3.92-.95,5.76-1.83,5.6-2.68,9.82-7.63,11.58-13.58l5.69-19.23c3.18-10.81-2.26-22.21-12.65-26.54l-1-.41c-3.13-1.29-6.3-2.59-9.48-3.89,3.29-11.13,6.57-22.26,9.85-33.37l.28-.97c2.43-8.3-.18-16.89-6.19-22.4,3.32-14.46,5-29.28,5-44.18,0-31.29-7.15-61.23-21.25-89-12.51-24.64-30.39-46.73-51.93-64.22.18-1.22.34-2.42.48-3.6.54-4.6.82-9.32.82-14.01v-.38c0-8.82-7.18-16-16-16h-23.25c-2.24-6.14-8.13-10.54-15.04-10.54h0Z"/>
      <g>
        <circle class="cls-3" cx="251.7" cy="251.61" r="184.25"/>
        <circle class="cls-2" cx="251.7" cy="251.61" r="162.99"/>
        <g>
          <circle class="cls-9" cx="251.7" cy="251.61" r="141.73"/>
          <g class="cls-14">
            <path class="cls-11" d="M184.11,494c-8-27-13-56-12-84,1-29,7-57,19-83,10-20,20-39,37-54,0,0,3,2,3,3-6,10-13,20-17,31-1,1-2,3-3,4-26,61-20,131,8,190-12-1-24-3-35-7h0ZM151.11,482c-5-3-12-3-17-7-4-4-10-6-15-9-3-79,34-161,104-201,1,1,2,3,2,4-19,16-34,32-47,53-2,3-3,6-5,9s-2,7-4,10c-1,1-2,3-3,4-18,43-25,91-15,137h0ZM255.11,503c-44-65-59-152-20-224l4,2c-27,76,0,161,52,219-12,3-24,3-36,3h0ZM90.11,444c-1-1-3-1-4-2-7-8-16-14-22-23,2-10,6-19,9-28,3-7,6-14,10-21,3-8,8-16,13-24,7-9,12-18,20-26l15-15c10-10,21-17,33-25,18-11,35-20,56-23,0,0,1,3,1,4-74,31-123,105-131,183h0ZM326.11,492c-37-31-66-71-79-119-8-30-11-60-3-91l3,1c-1,29,5,58,16,85,18,47,54,85,97,111-11,5-22,10-34,13h0ZM42.11,391c-6-10-13-20-18-31,15-25,33-46,56-65,12-9,23-17,36-24,14-7,28-13,44-17,20-4,39-10,60-6v4c-81,8-148,67-178,139h0ZM391.11,461c-25-9-47-24-68-42-21-20-40-41-51-68-1-1-2-3-3-4-9-20-15-42-17-64h4c4,15,10,29,16,43,2,3,3,6,5,9,4,6,7,11,11,17,8,10,15,19,24,28,15,14,30,25,48,36,19,11,39,17,59,24-10,6-17,16-28,21h0ZM11.11,326c-3-12-7-23-7-35,0-1,2-2,4-3,7-7,14-13,23-18,2-1,2-3,4-4,57-37,125-49,188-27-1,1-1,4-2,4-81-15-160,22-210,83h0ZM444.11,414c-10-2-19-3-29-5-4-1-7-2-11-3-20-6-38-14-56-24s-31-23-46-36c-11-11-20-23-28-37-5-9-10-17-13-27l4-2c42,71,121,107,200,105-6,10-13,20-21,29h0ZM.11,256c0-12-1-24,3-36,1-3,6-4,10-5,2-1,3-2,5-3,61-24,129-26,188,6,3,2,6,4,9,5,4,2,7,6,12,8-1,1-1,3-2,4C154.11,198,64.11,210,.11,256H.11ZM482.11,353c-49,8-100,3-146-20-26-14-49-32-67-55,1-1,3-3,4-3,59,56,146,69,221,44-3,12-7,23-12,34h0ZM230.11,228c-57-56-146-68-221-44,1-6,4-11,5-17,2-5,4-11,7-16,46-9,94-3,137,15,30,13,56,31,76,59,0,1-2,3-4,3h0ZM276.11,272c1-1,2-3,3-4,4,4,9,5,13,7,6,3,13,4,19,6,66,21,137,6,192-34,0,12,1,24-2,36-70,37-160,35-225-11h0ZM238.11,223c-2-3-3-6-5-9-43-67-120-98-195-95,6-10,13-20,21-29,4,1,8,0,12,1,11,3,22,4,33,8,15,5,28,10,42,17,14,8,27,17,40,27,17,15,31,31,43,51,5,9,10,17,13,27,0,0-3,1-4,2h0ZM281.11,264c0-1,1-4,1-4,33,6,64,4,96-5,46-14,84-42,114-78,3,12,7,23,8,35-58,52-144,80-219,52h0ZM247.11,220c-6-21-14-41-26-60-23-37-55-62-93-80-4-1-7-3-11-5-11-5-22-8-33-11,8-9,19-14,28-22,6,1,11,5,16,8,2,1,4,1,6,2,63,34,111,96,117,168h-4ZM283.11,256v-4c81-9,149-67,178-140,7,10,13,20,18,31-20,32-45,60-78,81-36,23-77,33-118,32h0ZM256.11,220c1-47-12-92-41-131-3-3-5-6-7-9-19-23-41-41-65-56,12-4,22-9,34-13,13,11,25,24,37,37,2,3,4,6,7,9,21,29,34,59,40,93,3,24,4,48-1,71-1,0-3-1-4-1h0ZM283.11,247c0-2-1-4-1-4,75-31,123-106,131-184,9,8,19,15,26,25-7,28-18,53-35,78-16,23-33,41-56,56-9,5-18,11-27,15-12,6-25,10-38,14h0ZM264.11,223c28-76,1-162-52-220,12-2,24-3,36-3,12,18,21,36,29,56,1,2,0,4,1,6,11,30,15,63,11,95-4,24-7,47-21,68-1,0-3-1-4-2h0ZM280.11,238c-1-1-2-3-2-4,19-15,34-32,47-53,2-3,3-6,5-9,1-2,1-3,2-5,1-1,2-3,3-4,20-45,26-94,17-142,11,5,22,10,32,17,1,48-9,95-38,137-1,2-1,3-2,5-18,24-38,44-64,58h0ZM272.11,227c47-65,47-154,12-225,12,2,23,4,35,7,18,56,17,118-9,172-2,3-4,6-5,9-1,1-2,3-3,4-1,2-1,3-2,5-9,11-16,22-25,32-1-1-2-3-3-4h0Z"/>
          </g>
          <circle class="cls-1" cx="251.7" cy="251.61" r="141.73"/>
        </g>
        <g>
          <path class="cls-8" d="M221.18,254.6c-1.66,0-3-1.34-3-3v-13.81c0-1.3.83-2.45,2.07-2.85,9.9-3.24,16.54-12.43,16.54-22.86,0-2.12-.27-4.2-.81-6.18-.24-.9-.05-1.86.51-2.61.57-.74,1.45-1.18,2.38-1.18h26.05c.93,0,1.81.44,2.38,1.18.57.74.76,1.71.51,2.61-.53,1.98-.81,4.06-.81,6.18,0,10.43,6.65,19.62,16.54,22.86,1.23.4,2.07,1.55,2.07,2.85v13.81c0,1.66-1.34,3-3,3h-61.45Z"/>
          <path class="cls-11" d="M264.93,205.13c-.6,2.22-.91,4.55-.91,6.96,0,12,7.8,22.17,18.61,25.71v13.81h-61.45v-13.81c10.81-3.54,18.61-13.71,18.61-25.71,0-2.41-.31-4.74-.91-6.96h26.05ZM264.93,199.13h-26.05c-1.87,0-3.63.87-4.76,2.35-1.14,1.48-1.52,3.41-1.03,5.21.47,1.72.7,3.54.7,5.39,0,9.13-5.82,17.17-14.48,20.01-2.47.81-4.13,3.11-4.13,5.7v13.81c0,3.31,2.69,6,6,6h61.45c3.31,0,6-2.69,6-6v-13.81c0-2.59-1.67-4.89-4.13-5.7-8.66-2.84-14.48-10.88-14.48-20.01,0-1.86.24-3.67.7-5.39.49-1.8.11-3.73-1.03-5.21-1.14-1.48-2.9-2.35-4.76-2.35h0ZM264.93,211.13h0,0Z"/>
        </g>
        <path class="cls-6" d="M143.26,92.93c-.47-3.99-.71-8.05-.71-12.16"/>
        <g>
          <path class="cls-8" d="M205.53,179.27c-.4,0-.8-.08-1.18-.24-35.12-15.05-59.67-47.91-64.07-85.75-.48-4.11-.73-8.32-.73-12.51v-.38c0-1.66,1.34-3,3-3h37.15c1.66,0,3,1.34,3,3v12.54c0,1.66-1.34,3-3,3h-22.01c4.06,27.73,22.56,50.98,48.92,61.18,1.16.45,1.92,1.56,1.92,2.8v16.36c0,1.01-.51,1.95-1.35,2.5-.5.33-1.07.5-1.65.5Z"/>
          <path class="cls-11" d="M179.7,80.39v12.54h-25.41c3.18,30.67,23.51,56.25,51.24,66.98v16.36c-33.48-14.35-57.9-45.78-62.27-83.34-.47-3.99-.71-8.05-.71-12.16v-.38h37.15ZM179.7,74.39h-37.15c-3.31,0-6,2.69-6,6v.38c0,4.3.25,8.63.75,12.86,4.53,38.9,29.76,72.68,65.87,88.15.76.32,1.56.49,2.36.49,1.16,0,2.31-.33,3.3-.99,1.68-1.11,2.7-2.99,2.7-5.01v-16.36c0-2.48-1.52-4.7-3.83-5.6-24.25-9.38-41.58-30.26-46.45-55.38h18.46c3.31,0,6-2.69,6-6v-12.54c0-3.31-2.69-6-6-6h0Z"/>
        </g>
        <g>
          <path class="cls-8" d="M298.09,179.27c-.58,0-1.15-.17-1.65-.5-.84-.56-1.35-1.5-1.35-2.5v-16.36c0-1.24.76-2.35,1.92-2.8,26.37-10.2,44.86-33.46,48.93-61.18h-22.01c-1.66,0-3-1.34-3-3v-12.54c0-1.66,1.34-3,3-3h37.15c1.66,0,3,1.34,3,3v.38c0,4.19-.25,8.4-.73,12.51-4.4,37.84-28.95,70.69-64.07,85.75-.38.16-.78.24-1.18.24Z"/>
          <path class="cls-11" d="M361.07,80.39v.38c0,4.11-.24,8.17-.71,12.16-4.37,37.56-28.79,68.99-62.27,83.34v-16.36c27.73-10.73,48.06-36.31,51.24-66.98h-25.41v-12.54h37.15ZM361.07,74.39h-37.15c-3.31,0-6,2.69-6,6v12.54c0,3.31,2.69,6,6,6h18.46c-4.88,25.13-22.2,46-46.45,55.38-2.31.89-3.83,3.12-3.83,5.6v16.36c0,2.02,1.01,3.9,2.7,5.01,1,.66,2.15.99,3.3.99.8,0,1.61-.16,2.36-.49,36.1-15.47,61.34-49.25,65.87-88.16.5-4.22.75-8.55.75-12.85v-.38c0-3.31-2.69-6-6-6h0Z"/>
        </g>
        <g>
          <path class="cls-7" d="M251.91,203.7c-20.76,0-39.49-12.66-52.72-35.65-13.84-24.05-21.16-58.01-21.16-98.21,0-1.66,1.34-3,3-3h141.75c1.66,0,3,1.34,3,3,0,40.2-7.32,74.16-21.16,98.21-13.23,22.99-31.95,35.65-52.72,35.65Z"/>
          <path class="cls-11" d="M322.78,69.85c0,83.42-31.73,130.85-70.87,130.85s-70.87-47.43-70.87-130.85h141.75ZM322.78,63.85h-141.75c-3.31,0-6,2.69-6,6,0,40.72,7.45,75.2,21.56,99.7,13.79,23.96,33.43,37.15,55.32,37.15s41.53-13.19,55.32-37.15c14.1-24.51,21.56-58.98,21.56-99.7,0-3.31-2.69-6-6-6h0ZM322.78,75.85h0,0Z"/>
        </g>
        <path class="cls-11" d="M261.56,189.33c-1.31,0-2.52-.87-2.89-2.2-.44-1.6.49-3.25,2.09-3.69,12.66-3.51,23.51-14.09,31.38-30.6,8.56-17.97,13.09-42.17,13.09-70,0-1.66,1.34-3,3-3s3,1.34,3,3c0,57.26-18.72,98.02-48.86,106.38-.27.07-.54.11-.8.11Z"/>
        <g>
          <path class="cls-8" d="M208.37,246.46h86.66c3.22,0,5.83,2.61,5.83,5.83v16.34c0,3.22-2.61,5.83-5.83,5.83h-86.66c-3.22,0-5.83-2.61-5.83-5.83v-16.34c0-3.22,2.61-5.83,5.83-5.83Z"/>
          <path class="cls-11" d="M295.03,249.46c1.57,0,2.83,1.27,2.83,2.83v16.34c0,1.57-1.27,2.83-2.83,2.83h-86.66c-1.57,0-2.83-1.27-2.83-2.83v-16.34c0-1.57,1.27-2.83,2.83-2.83h86.66ZM295.03,243.46h-86.66c-4.87,0-8.83,3.96-8.83,8.83v16.34c0,4.87,3.96,8.83,8.83,8.83h86.66c4.87,0,8.83-3.96,8.83-8.83v-16.34c0-4.87-3.96-8.83-8.83-8.83h0Z"/>
        </g>
        <path class="cls-11" d="M261.6,137.66h-20.26v-3.44c0-4.55.51-7.91,1.53-10.08,1.02-2.17,2.88-3.85,5.57-5.05l3.71-1.64c2.8-1.24,4.21-2.98,4.21-5.24,0-1.31-.46-2.42-1.37-3.33-.91-.91-2.02-1.37-3.33-1.37-3.57,0-5.35,2.48-5.35,7.43h-18.84c0-6.63,1.53-12.03,4.59-16.22,2.26-3.09,5.19-5.55,8.79-7.37,3.6-1.82,7.34-2.73,11.2-2.73,6.85,0,12.61,2.27,17.29,6.8,4.68,4.53,7.02,10.15,7.02,16.85,0,8.27-3.35,14.07-10.05,17.42-2.18,1.09-3.51,2.04-3.99,2.84-.47.8-.71,2.51-.71,5.13ZM251.82,140.56c3.57,0,6.64,1.29,9.2,3.88,2.57,2.59,3.85,5.66,3.85,9.23s-1.28,6.6-3.82,9.09c-2.55,2.49-5.63,3.74-9.23,3.74s-6.84-1.21-9.26-3.63c-2.42-2.42-3.63-5.51-3.63-9.26s1.26-6.73,3.77-9.26c2.51-2.53,5.55-3.8,9.12-3.8Z"/>
        <g>
          <path class="cls-12" d="M161.81,200.86s0,0-.01-.01c0,0-.02-.02-.02-.03,0,0,0,0-.01-.01,0,0-.02-.02-.02-.03,0,0,0,0-.01-.01,0,0-.02-.02-.02-.03,0,0,0,0-.01-.01,0,0-.02-.02-.02-.03,0,0,0,0-.01-.01,0,0-.02-.02-.02-.03,0,0,0,0-.01-.01,0,0-.02-.02-.02-.03,0,0,0,0-.01-.01,0,0-.02-.02-.02-.03,0,0,0,0-.01-.01,0,0-.02-.02-.02-.03,0,0,0,0-.01-.01,0,0-.02-.02-.02-.03,0,0,0,0-.01-.01,0,0-.02-.02-.02-.03,0,0,0,0-.01-.01,0,0-.02-.02-.02-.03,0,0,0,0-.01-.01,0,0-.02-.02-.02-.03,0,0,0,0-.01-.01,0,0-.02-.02-.02-.03,0,0,0,0-.01-.01,0,0-.02-.02-.02-.03,0,0,0,0-.01-.01,0,0-.02-.02-.02-.03,0,0,0,0-.01-.01,0,0-.02-.02-.02-.03,0,0,0,0-.01-.01,0,0-.02-.02-.02-.03,0,0,0,0-.01-.01,0,0-.02-.02-.02-.03,0,0,0,0-.01-.01,0,0-.02-.02-.02-.03,0,0,0,0-.01-.01,0,0-.02-.02-.02-.03,0,0,0,0-.01-.01,0,0-.02-.02-.02-.03,0,0,0,0-.01-.01,0,0-.02-.02-.02-.03,0,0,0,0-.01-.01,0,0-.02-.02-.02-.03,0,0,0,0-.01-.01,0,0-.02-.02-.02-.03,0,0,0,0-.01-.01,0,0-.02-.02-.02-.03,0,0,0,0-.01-.01,0,0-.02-.02-.02-.03,0,0,0,0-.01-.01,0,0-.02-.02-.02-.03,0,0,0,0-.01-.01,0,0-.02-.02-.02-.03,0,0,0,0-.01-.01,0,0-.02-.02-.02-.03,0,0,0,0-.01-.01,0,0-.02-.02-.02-.03,0,0,0,0-.01-.01,0,0-.02-.02-.02-.03,0,0,0,0-.01-.01,0,0-.02-.02-.02-.03,0,0,0,0-.01-.01,0,0-.02-.02-.02-.03,0,0,0,0-.01-.01,0,0-.02-.02-.02-.03,0,0,0,0-.01-.01,0,0-.02-.02-.02-.03,0,0,0,0-.01-.01,0,0-.02-.02-.02-.03,0,0,0,0-.01-.01,0,0-.02-.02-.02-.03,0,0,0,0-.01-.01,0,0-.02-.02-.02-.03,0,0,0,0-.01-.01,0,0-.02-.02-.02-.03,0,0,0,0-.01-.01,0,0-.02-.02-.02-.03,0,0,0,0-.01-.01,0,0-.02-.02-.02-.03,0,0,0,0-.01-.01,0,0-.02-.02-.02-.03,0,0,0,0-.01-.01,0,0-.02-.02-.02-.03,0,0,0,0-.01-.01,0,0-.02-.02-.02-.03,0,0,0,0-.01-.01,0,0-.02-.02-.02-.03,0,0,0,0-.01-.01,0,0-.02-.02-.02-.03,0,0,0,0-.01-.01,0,0-.02-.02-.02-.03,0,0,0,0-.01-.01,0,0-.02-.02-.02-.03,0,0,0,0-.01-.01,0,0-.02-.02-.02-.03,0,0,0,0-.01-.01,0,0-.02-.02-.02-.03,0,0,0,0-.01-.01,0,0-.02-.02-.02-.03,0,0,0,0-.01-.01,0,0-.02-.02-.02-.03,0,0,0,0-.01-.01,0,0-.02-.02-.02-.03,0,0,0,0-.01-.01,0,0-.02-.02-.02-.03,0,0,0,0-.01-.01,0,0-.02-.02-.02-.03,0,0,0,0-.01-.01,0,0-.02-.02-.02-.03,0,0,0,0-.01-.01,0,0-.02-.02-.02-.03,0,0,0,0-.01-.01,0,0-.02-.02-.02-.03,0,0,0,0-.01-.01,0,0-.02-.02-.02-.03,0,0,0,0-.01-.01,0,0-.02-.02-.02-.03,0,0,0,0-.01-.01,0,0-.02-.02-.02-.03,0,0,0,0-.01-.01,0,0-.02-.02-.02-.03,0,0,0,0-.01-.01,0,0-.02-.02-.02-.03,0,0,0,0-.01-.01,0,0-.02-.02-.02-.03,0,0,0,0-.01-.01,0,0-.02-.02-.02-.03,0,0,0,0-.01-.01,0,0-.02-.02-.02-.03,0,0,0,0-.01-.01,0,0-.02-.02-.02-.03,0,0,0,0-.01-.01,0,0-.02-.02-.02-.03,0,0,0,0-.01-.01,0,0-.02-.02-.02-.03,0,0,0,0-.01-.01,0,0-.02-.02-.02-.03,0,0,0,0-.01-.01,0,0-.02-.02-.02-.03,0,0,0,0-.01-.01,0,0-.02-.02-.02-.03,0,0,0,0-.01-.01,0,0-.02-.02-.02-.03,0,0,0,0-.01-.01,0,0-.02-.02-.02-.03,0,0,0,0-.01-.01,0,0-.02-.02-.02-.03,0,0,0,0-.01-.01,0,0-.02-.02-.02-.03,0,0,0,0-.01-.01,0,0-.02-.02-.02-.03,0,0,0,0-.01-.01,0,0-.02-.02-.02-.03,0,0,0,0-.01-.01,0,0-.02-.02-.02-.03,0,0,0,0-.01-.01,0,0-.02-.02-.02-.03,0,0,0,0-.01-.01,0,0-.02-.02-.02-.03,0,0,0,0-.01-.01,0,0-.02-.02-.02-.03,0,0,0,0-.01-.01,0,0-.02-.02-.02-.03,0,0,0,0-.01-.01,0,0-.02-.02-.02-.03,0,0,0,0-.01-.01,0,0-.02-.02-.02-.03,0,0,0,0-.01-.01,0,0-.02-.02-.02-.03,0,0,0,0-.01-.01,0,0-.02-.02-.02-.03,0,0,0,0-.01-.01,0,0-.02-.02-.02-.03,0,0,0,0-.01-.01,0,0-.02-.02-.02-.03,0,0,0,0-.01-.01,0,0-.02-.02-.02-.03,0,0,0,0-.01-.01,0,0-.02-.02-.02-.03,0,0,0,0-.01-.01,0,0-.02-.02-.02-.03-3.59-3.48-8.02-5.22-13.28-5.22-2.96,0-5.83.7-8.6,2.1-2.77,1.4-5.02,3.29-6.75,5.66-2.35,3.22-3.52,7.37-3.52,12.46h.04s0,.02,0,.04h.04s0,.02,0,.04h.04s0,.02,0,.04h.04s0,.02,0,.04h.04s0,.02,0,.04h.04s0,.02,0,.04h.04s0,.02,0,.04h.04s0,.02,0,.04h.04s0,.02,0,.04h.04s0,.02,0,.04h.04s0,.02,0,.04h.04s0,.02,0,.04h.04s0,.02,0,.04h.04s0,.02,0,.04h.04s0,.02,0,.04h.04s0,.02,0,.04h.04s0,.02,0,.04h.04s0,.02,0,.04h.04s0,.02,0,.04h.04s0,.02,0,.04h.04s0,.02,0,.04h.04s0,.02,0,.04h.04s0,.02,0,.04h.04s0,.02,0,.04h.04s0,.02,0,.04h.04s0,.02,0,.04h.04s0,.02,0,.04h.04s0,.02,0,.04h.04s0,.02,0,.04h.04s0,.02,0,.04h.04s0,.02,0,.04h.04s0,.02,0,.04h.04s0,.02,0,.04h.04s0,.02,0,.04h.04s0,.02,0,.04h.04s0,.02,0,.04h.04s0,.02,0,.04h.04s0,.02,0,.04h.04s0,.02,0,.04h.04s0,.02,0,.04h.04s0,.02,0,.04h.04s0,.02,0,.04h.04s0,.02,0,.04h.04s0,.02,0,.04h.04s0,.02,0,.04h.04s0,.02,0,.04h.04s0,.02,0,.04h.04s0,.02,0,.04h.04s0,.02,0,.04h.04s0,.02,0,.04h.04s0,.02,0,.04h.04s0,.02,0,.04h.04s0,.02,0,.04h.04s0,.02,0,.04h.04s0,.02,0,.04h.04s0,.02,0,.04h.04s0,.02,0,.04h.04s0,.02,0,.04h.04s0,.02,0,.04h.04s0,.02,0,.04h.04s0,.02,0,.04h.04s0,.02,0,.04h.04s0,.02,0,.04h.04s0,.02,0,.04h.04s0,.02,0,.04h.04s0,.02,0,.04h.04s0,.02,0,.04h.04s0,.02,0,.04h.04s0,.02,0,.04h.04s0,.02,0,.04h.04s0,.02,0,.04h.04s0,.02,0,.04h.04s0,.02,0,.04h.04s0,.02,0,.04h.04s0,.02,0,.04h.04s0,.02,0,.04h.04s0,.02,0,.04h.04s0,.02,0,.04h.04s0,.02,0,.04h.04s0,.02,0,.04h.04s0,.02,0,.04h.04s0,.02,0,.04h.04s0,.02,0,.04h.04s0,.02,0,.04h.04s0,.02,0,.04h.04s0,.02,0,.04h.04s0,.02,0,.04h.04s0,.02,0,.04h.04s0,.02,0,.04h.04s0,.02,0,.04h.04s0,.02,0,.04h.04s0,.02,0,.04h12.18c-1.8.9-3.07,2.11-3.78,3.64-.78,1.66-1.17,4.24-1.17,7.74v2.64h.04v.04h.04v.04h.04v.04h.04v.04h.04v.04h.04v.04h.04v.04h.04v.04h.04v.04h.04v.04h.04v.04h.04v.04h.04v.04h.04v.04h.04v.04h.04v.04h.04v.04h.04v.04h.04v.04h.04v.04h.04v.04h.04v.04h.04v.04h.04v.04h.04v.04h.04v.04h.04v.04h.04v.04h.04v.04h.04v.04h.04v.04h.04v.04h.04v.04h.04v.04h.04v.04h.04v.04h.04v.04h.04v.04h.04v.04h.04v.04h.04v.04h.04v.04h.04v.04h.04v.04h.04v.04h.04v.04h.04v.04h.04v.04h.04v.04h.04v.04h.04v.04h.04v.04h.04v.04h.04v.04h.04v.04h.04v.04h.04v.04h.04v.04h.04v.04h.04v.04h.04v.04h.04v.04h.04v.04h.04v.04h.04v.04h.04v.04h.04v.04h.04v.04h.04v.04h.04v.04h.04v.04h.04v.04h.04v.04h.04v.04h.04v.04h.04v.04h.04v.04h.04v.04h.04v.04h.04v.04h.04v.04h.04v.04h.04v.04h.04v.04h.04v.04h.04v.04h.04v.04h.04v.04h.04v.04h.04v.04h.04c-.84.46-1.62,1.05-2.34,1.78-1.93,1.94-2.89,4.31-2.89,7.11s.93,5.25,2.79,7.11c0,0,.01.01.02.02,0,0,.01.01.02.02s.01.01.02.02c0,0,.01.01.02.02s.01.01.02.02c0,0,.01.01.02.02s.01.01.02.02c0,0,.01.01.02.02s.01.01.02.02c0,0,.01.01.02.02s.01.01.02.02c0,0,.01.01.02.02s.01.01.02.02c0,0,.01.01.02.02s.01.01.02.02c0,0,.01.01.02.02s.01.01.02.02c0,0,.01.01.02.02s.01.01.02.02c0,0,.01.01.02.02s.01.01.02.02c0,0,.01.01.02.02s.01.01.02.02c0,0,.01.01.02.02s.01.01.02.02c0,0,.01.01.02.02s.01.01.02.02c0,0,.01.01.02.02s.01.01.02.02c0,0,.01.01.02.02s.01.01.02.02c0,0,.01.01.02.02s.01.01.02.02c0,0,.01.01.02.02s.01.01.02.02c0,0,.01.01.02.02s.01.01.02.02c0,0,.01.01.02.02s.01.01.02.02c0,0,.01.01.02.02s.01.01.02.02c0,0,.01.01.02.02s.01.01.02.02c0,0,.01.01.02.02s.01.01.02.02c0,0,.01.01.02.02s.01.01.02.02c0,0,.01.01.02.02s.01.01.02.02c0,0,.01.01.02.02s.01.01.02.02c0,0,.01.01.02.02s.01.01.02.02c0,0,.01.01.02.02s.01.01.02.02c0,0,.01.01.02.02s.01.01.02.02c0,0,.01.01.02.02s.01.01.02.02c0,0,.01.01.02.02s.01.01.02.02c0,0,.01.01.02.02s.01.01.02.02c0,0,.01.01.02.02s.01.01.02.02c0,0,.01.01.02.02s.01.01.02.02c0,0,.01.01.02.02s.01.01.02.02c0,0,.01.01.02.02s.01.01.02.02c0,0,.01.01.02.02s.01.01.02.02c0,0,.01.01.02.02s.01.01.02.02c0,0,.01.01.02.02s.01.01.02.02c0,0,.01.01.02.02s.01.01.02.02c0,0,.01.01.02.02s.01.01.02.02c0,0,.01.01.02.02s.01.01.02.02c0,0,.01.01.02.02s.01.01.02.02c0,0,.01.01.02.02s.01.01.02.02c0,0,.01.01.02.02s.01.01.02.02c0,0,.01.01.02.02s.01.01.02.02c0,0,.01.01.02.02s.01.01.02.02c0,0,.01.01.02.02s.01.01.02.02c0,0,.01.01.02.02s.01.01.02.02c0,0,.01.01.02.02s.01.01.02.02c0,0,.01.01.02.02s.01.01.02.02c0,0,.01.01.02.02s.01.01.02.02c0,0,.01.01.02.02s.01.01.02.02c0,0,.01.01.02.02s.01.01.02.02c0,0,.01.01.02.02s.01.01.02.02c0,0,.01.01.02.02s.01.01.02.02c0,0,.01.01.02.02s.01.01.02.02c0,0,.01.01.02.02s.01.01.02.02c0,0,.01.01.02.02s.01.01.02.02c0,0,.01.01.02.02s.01.01.02.02c0,0,.01.01.02.02s.01.01.02.02c0,0,.01.01.02.02s.01.01.02.02c0,0,.01.01.02.02s.01.01.02.02c0,0,.01.01.02.02s.01.01.02.02c0,0,.01.01.02.02s.01.01.02.02c0,0,.01.01.02.02s.01.01.02.02c0,0,.01.01.02.02s.01.01.02.02c0,0,.01.01.02.02s.01.01.02.02c0,0,.01.01.02.02s.01.01.02.02c0,0,.01.01.02.02s.01.01.02.02c0,0,.01.01.02.02s.01.01.02.02c0,0,.01.01.02.02s.01.01.02.02c0,0,.01.01.02.02s.01.01.02.02c0,0,.01.01.02.02s.01.01.02.02c0,0,.01.01.02.02s.01.01.02.02c0,0,.01.01.02.02s.01.01.02.02c0,0,.01.01.02.02s.01.01.02.02c0,0,.01.01.02.02s.01.01.02.02c0,0,.01.01.02.02s.01.01.02.02c0,0,.01.01.02.02s.01.01.02.02c0,0,.01.01.02.02s.01.01.02.02c0,0,.01.01.02.02s.01.01.02.02c0,0,.01.01.02.02s.01.01.02.02c0,0,.01.01.02.02s.01.01.02.02c0,0,.01.01.02.02s.01.01.02.02c0,0,.01.01.02.02s.01.01.02.02c0,0,.01.01.02.02s.01.01.02.02c0,0,.01.01.02.02s.01.01.02.02c0,0,.01.01.02.02s.01.01.02.02c0,0,.01.01.02.02s.01.01.02.02c0,0,.01.01.02.02s.01.01.02.02c0,0,.01.01.02.02s.01.01.02.02c0,0,.01.01.02.02,1.86,1.86,4.23,2.79,7.11,2.79s5.13-.96,7.09-2.87c1.96-1.91,2.94-4.24,2.94-6.98s-.99-5.1-2.96-7.09c0,0-.01-.01-.02-.02,0,0-.01-.01-.02-.02,0,0-.01-.01-.02-.02,0,0-.01-.01-.02-.02,0,0-.01-.01-.02-.02,0,0-.01-.01-.02-.02,0,0-.01-.01-.02-.02,0,0-.01-.01-.02-.02,0,0-.01-.01-.02-.02,0,0-.01-.01-.02-.02,0,0-.01-.01-.02-.02,0,0-.01-.01-.02-.02,0,0-.01-.01-.02-.02,0,0-.01-.01-.02-.02,0,0-.01-.01-.02-.02,0,0-.01-.01-.02-.02,0,0-.01-.01-.02-.02,0,0-.01-.01-.02-.02,0,0-.01-.01-.02-.02,0,0-.01-.01-.02-.02,0,0-.01-.01-.02-.02,0,0-.01-.01-.02-.02,0,0-.01-.01-.02-.02,0,0-.01-.01-.02-.02,0,0-.01-.01-.02-.02,0,0-.01-.01-.02-.02,0,0-.01-.01-.02-.02,0,0-.01-.01-.02-.02,0,0-.01-.01-.02-.02,0,0-.01-.01-.02-.02,0,0-.01-.01-.02-.02,0,0-.01-.01-.02-.02,0,0-.01-.01-.02-.02,0,0-.01-.01-.02-.02,0,0-.01-.01-.02-.02,0,0-.01-.01-.02-.02,0,0-.01-.01-.02-.02,0,0-.01-.01-.02-.02,0,0-.01-.01-.02-.02,0,0-.01-.01-.02-.02,0,0-.01-.01-.02-.02,0,0-.01-.01-.02-.02,0,0-.01-.01-.02-.02,0,0-.01-.01-.02-.02,0,0-.01-.01-.02-.02,0,0-.01-.01-.02-.02,0,0-.01-.01-.02-.02,0,0-.01-.01-.02-.02,0,0-.01-.01-.02-.02,0,0-.01-.01-.02-.02,0,0-.01-.01-.02-.02,0,0-.01-.01-.02-.02,0,0-.01-.01-.02-.02,0,0-.01-.01-.02-.02,0,0-.01-.01-.02-.02,0,0-.01-.01-.02-.02,0,0-.01-.01-.02-.02,0,0-.01-.01-.02-.02,0,0-.01-.01-.02-.02,0,0-.01-.01-.02-.02,0,0-.01-.01-.02-.02,0,0-.01-.01-.02-.02,0,0-.01-.01-.02-.02,0,0-.01-.01-.02-.02,0,0-.01-.01-.02-.02,0,0-.01-.01-.02-.02,0,0-.01-.01-.02-.02,0,0-.01-.01-.02-.02,0,0-.01-.01-.02-.02,0,0-.01-.01-.02-.02,0,0-.01-.01-.02-.02,0,0-.01-.01-.02-.02,0,0-.01-.01-.02-.02,0,0-.01-.01-.02-.02,0,0-.01-.01-.02-.02,0,0-.01-.01-.02-.02,0,0-.01-.01-.02-.02,0,0-.01-.01-.02-.02,0,0-.01-.01-.02-.02,0,0-.01-.01-.02-.02,0,0-.01-.01-.02-.02,0,0-.01-.01-.02-.02,0,0-.01-.01-.02-.02,0,0-.01-.01-.02-.02,0,0-.01-.01-.02-.02,0,0-.01-.01-.02-.02,0,0-.01-.01-.02-.02,0,0-.01-.01-.02-.02,0,0-.01-.01-.02-.02,0,0-.01-.01-.02-.02,0,0-.01-.01-.02-.02,0,0-.01-.01-.02-.02,0,0-.01-.01-.02-.02,0,0-.01-.01-.02-.02,0,0-.01-.01-.02-.02,0,0-.01-.01-.02-.02,0,0-.01-.01-.02-.02,0,0-.01-.01-.02-.02,0,0-.01-.01-.02-.02,0,0-.01-.01-.02-.02,0,0-.01-.01-.02-.02,0,0-.01-.01-.02-.02,0,0-.01-.01-.02-.02,0,0-.01-.01-.02-.02,0,0-.01-.01-.02-.02,0,0-.01-.01-.02-.02,0,0-.01-.01-.02-.02,0,0-.01-.01-.02-.02,0,0-.01-.01-.02-.02,0,0-.01-.01-.02-.02,0,0-.01-.01-.02-.02,0,0-.01-.01-.02-.02,0,0-.01-.01-.02-.02,0,0-.01-.01-.02-.02,0,0-.01-.01-.02-.02,0,0-.01-.01-.02-.02,0,0-.01-.01-.02-.02,0,0-.01-.01-.02-.02,0,0-.01-.01-.02-.02,0,0-.01-.01-.02-.02,0,0-.01-.01-.02-.02,0,0-.01-.01-.02-.02,0,0-.01-.01-.02-.02,0,0-.01-.01-.02-.02,0,0-.01-.01-.02-.02,0,0-.01-.01-.02-.02,0,0-.01-.01-.02-.02,0,0-.01-.01-.02-.02,0,0-.01-.01-.02-.02,0,0-.01-.01-.02-.02,0,0-.01-.01-.02-.02,0,0-.01-.01-.02-.02,0,0-.01-.01-.02-.02,0,0-.01-.01-.02-.02,0,0-.01-.01-.02-.02,0,0-.01-.01-.02-.02,0,0-.01-.01-.02-.02,0,0-.01-.01-.02-.02,0,0-.01-.01-.02-.02,0,0-.01-.01-.02-.02,0,0-.01-.01-.02-.02,0,0-.01-.01-.02-.02,0,0-.01-.01-.02-.02,0,0-.01-.01-.02-.02,0,0-.01-.01-.02-.02,0,0-.01-.01-.02-.02,0,0-.01-.01-.02-.02,0,0-.01-.01-.02-.02,0,0-.01-.01-.02-.02,0,0-.01-.01-.02-.02,0,0-.01-.01-.02-.02,0,0-.01-.01-.02-.02,0,0-.01-.01-.02-.02,0,0-.01-.01-.02-.02,0,0-.01-.01-.02-.02,0,0-.01-.01-.02-.02,0,0-.01-.01-.02-.02,0,0-.01-.01-.02-.02,0,0-.01-.01-.02-.02,0,0-.01-.01-.02-.02,0,0-.01-.01-.02-.02,0,0-.01-.01-.02-.02,0,0-.01-.01-.02-.02,0,0-.01-.01-.02-.02,0,0-.01-.01-.02-.02,0,0-.01-.01-.02-.02,0,0-.01-.01-.02-.02,0,0-.01-.01-.02-.02,0,0-.01-.01-.02-.02,0,0-.01-.01-.02-.02,0,0-.01-.01-.02-.02,0,0-.01-.01-.02-.02,0,0-.01-.01-.02-.02,0,0-.01-.01-.02-.02,0,0-.01-.01-.02-.02,0,0-.01-.01-.02-.02,0,0-.01-.01-.02-.02,0,0-.01-.01-.02-.02,0,0-.01-.01-.02-.02,0,0-.01-.01-.02-.02,0,0-.01-.01-.02-.02,0,0-.01-.01-.02-.02,0,0-.01-.01-.02-.02,0,0-.01-.01-.02-.02-.72-.72-1.49-1.31-2.31-1.77h6.18c0-2.01.18-3.33.55-3.94.36-.61,1.38-1.34,3.06-2.18,5.14-2.57,7.72-7.03,7.72-13.38,0-5.14-1.8-9.46-5.39-12.94ZM148.24,210.15c.06,0,.11.01.16.01,0,.06.01.11.01.16,0,1.73-1.08,3.08-3.23,4.03l-1.01.44c.24-3.09,1.59-4.65,4.06-4.65Z"/>
          <path class="cls-13" d="M144.9,232.06c2.74,0,5.1.99,7.07,2.98,1.97,1.99,2.96,4.35,2.96,7.09s-.98,5.07-2.94,6.98c-1.96,1.91-4.32,2.87-7.09,2.87s-5.25-.93-7.11-2.79c-1.86-1.86-2.79-4.23-2.79-7.11s.96-5.17,2.89-7.11c1.93-1.94,4.26-2.92,7-2.92ZM152.41,229.84h-15.56v-2.64c0-3.5.39-6.07,1.17-7.74.78-1.66,2.21-2.96,4.28-3.88l2.85-1.26c2.15-.95,3.23-2.29,3.23-4.03,0-1.01-.35-1.86-1.05-2.56-.7-.7-1.55-1.05-2.56-1.05-2.74,0-4.11,1.9-4.11,5.7h-14.47c0-5.09,1.17-9.24,3.52-12.46,1.73-2.38,3.98-4.26,6.75-5.66,2.77-1.4,5.63-2.1,8.6-2.1,5.26,0,9.68,1.74,13.28,5.22,3.59,3.48,5.39,7.8,5.39,12.94,0,6.35-2.57,10.81-7.72,13.38-1.68.84-2.7,1.57-3.06,2.18-.36.62-.55,1.93-.55,3.94Z"/>
        </g>
        <g>
          <path class="cls-12" d="M375.49,200.88s0,0-.01-.01c0,0-.02-.02-.02-.03,0,0,0,0-.01-.01,0,0-.02-.02-.02-.03,0,0,0,0-.01-.01,0,0-.02-.02-.02-.03,0,0,0,0-.01-.01,0,0-.02-.02-.02-.03,0,0,0,0-.01-.01,0,0-.02-.02-.02-.03,0,0,0,0-.01-.01,0,0-.02-.02-.02-.03,0,0,0,0-.01-.01,0,0-.02-.02-.02-.03,0,0,0,0-.01-.01,0,0-.02-.02-.02-.03,0,0,0,0-.01-.01,0,0-.02-.02-.02-.03,0,0,0,0-.01-.01,0,0-.02-.02-.02-.03,0,0,0,0-.01-.01,0,0-.02-.02-.02-.03,0,0,0,0-.01-.01,0,0-.02-.02-.02-.03,0,0,0,0-.01-.01,0,0-.02-.02-.02-.03,0,0,0,0-.01-.01,0,0-.02-.02-.02-.03,0,0,0,0-.01-.01,0,0-.02-.02-.02-.03,0,0,0,0-.01-.01,0,0-.02-.02-.02-.03,0,0,0,0-.01-.01,0,0-.02-.02-.02-.03,0,0,0,0-.01-.01,0,0-.02-.02-.02-.03,0,0,0,0-.01-.01,0,0-.02-.02-.02-.03,0,0,0,0-.01-.01,0,0-.02-.02-.02-.03,0,0,0,0-.01-.01,0,0-.02-.02-.02-.03,0,0,0,0-.01-.01,0,0-.02-.02-.02-.03,0,0,0,0-.01-.01,0,0-.02-.02-.02-.03,0,0,0,0-.01-.01,0,0-.02-.02-.02-.03,0,0,0,0-.01-.01,0,0-.02-.02-.02-.03,0,0,0,0-.01-.01,0,0-.02-.02-.02-.03,0,0,0,0-.01-.01,0,0-.02-.02-.02-.03,0,0,0,0-.01-.01,0,0-.02-.02-.02-.03,0,0,0,0-.01-.01,0,0-.02-.02-.02-.03,0,0,0,0-.01-.01,0,0-.02-.02-.02-.03,0,0,0,0-.01-.01,0,0-.02-.02-.02-.03,0,0,0,0-.01-.01,0,0-.02-.02-.02-.03,0,0,0,0-.01-.01,0,0-.02-.02-.02-.03,0,0,0,0-.01-.01,0,0-.02-.02-.02-.03,0,0,0,0-.01-.01,0,0-.02-.02-.02-.03,0,0,0,0-.01-.01,0,0-.02-.02-.02-.03,0,0,0,0-.01-.01,0,0-.02-.02-.02-.03,0,0,0,0-.01-.01,0,0-.02-.02-.02-.03,0,0,0,0-.01-.01,0,0-.02-.02-.02-.03,0,0,0,0-.01-.01,0,0-.02-.02-.02-.03,0,0,0,0-.01-.01,0,0-.02-.02-.02-.03,0,0,0,0-.01-.01,0,0-.02-.02-.02-.03,0,0,0,0-.01-.01,0,0-.02-.02-.02-.03,0,0,0,0-.01-.01,0,0-.02-.02-.02-.03,0,0,0,0-.01-.01,0,0-.02-.02-.02-.03,0,0,0,0-.01-.01,0,0-.02-.02-.02-.03,0,0,0,0-.01-.01,0,0-.02-.02-.02-.03,0,0,0,0-.01-.01,0,0-.02-.02-.02-.03,0,0,0,0-.01-.01,0,0-.02-.02-.02-.03,0,0,0,0-.01-.01,0,0-.02-.02-.02-.03,0,0,0,0-.01-.01,0,0-.02-.02-.02-.03,0,0,0,0-.01-.01,0,0-.02-.02-.02-.03,0,0,0,0-.01-.01,0,0-.02-.02-.02-.03,0,0,0,0-.01-.01,0,0-.02-.02-.02-.03,0,0,0,0-.01-.01,0,0-.02-.02-.02-.03,0,0,0,0-.01-.01,0,0-.02-.02-.02-.03,0,0,0,0-.01-.01,0,0-.02-.02-.02-.03,0,0,0,0-.01-.01,0,0-.02-.02-.02-.03,0,0,0,0-.01-.01,0,0-.02-.02-.02-.03,0,0,0,0-.01-.01,0,0-.02-.02-.02-.03,0,0,0,0-.01-.01,0,0-.02-.02-.02-.03,0,0,0,0-.01-.01,0,0-.02-.02-.02-.03,0,0,0,0-.01-.01,0,0-.02-.02-.02-.03,0,0,0,0-.01-.01,0,0-.02-.02-.02-.03,0,0,0,0-.01-.01,0,0-.02-.02-.02-.03,0,0,0,0-.01-.01,0,0-.02-.02-.02-.03,0,0,0,0-.01-.01,0,0-.02-.02-.02-.03,0,0,0,0-.01-.01,0,0-.02-.02-.02-.03,0,0,0,0-.01-.01,0,0-.02-.02-.02-.03,0,0,0,0-.01-.01,0,0-.02-.02-.02-.03,0,0,0,0-.01-.01,0,0-.02-.02-.02-.03,0,0,0,0-.01-.01,0,0-.02-.02-.02-.03,0,0,0,0-.01-.01,0,0-.02-.02-.02-.03,0,0,0,0-.01-.01,0,0-.02-.02-.02-.03,0,0,0,0-.01-.01,0,0-.02-.02-.02-.03,0,0,0,0-.01-.01,0,0-.02-.02-.02-.03,0,0,0,0-.01-.01,0,0-.02-.02-.02-.03,0,0,0,0-.01-.01,0,0-.02-.02-.02-.03,0,0,0,0-.01-.01,0,0-.02-.02-.02-.03,0,0,0,0-.01-.01,0,0-.02-.02-.02-.03,0,0,0,0-.01-.01,0,0-.02-.02-.02-.03,0,0,0,0-.01-.01,0,0-.02-.02-.02-.03,0,0,0,0-.01-.01,0,0-.02-.02-.02-.03,0,0,0,0-.01-.01,0,0-.02-.02-.02-.03,0,0,0,0-.01-.01,0,0-.02-.02-.02-.03,0,0,0,0-.01-.01,0,0-.02-.02-.02-.03,0,0,0,0-.01-.01,0,0-.02-.02-.02-.03,0,0,0,0-.01-.01,0,0-.02-.02-.02-.03,0,0,0,0-.01-.01,0,0-.02-.02-.02-.03,0,0,0,0-.01-.01,0,0-.02-.02-.02-.03,0,0,0,0-.01-.01,0,0-.02-.02-.02-.03,0,0,0,0-.01-.01,0,0-.02-.02-.02-.03-3.59-3.48-8.02-5.22-13.28-5.22-2.96,0-5.83.7-8.6,2.1-2.77,1.4-5.02,3.29-6.75,5.66-2.35,3.22-3.52,7.37-3.52,12.46h.04s0,.02,0,.04h.04s0,.02,0,.04h.04s0,.02,0,.04h.04s0,.02,0,.04h.04s0,.02,0,.04h.04s0,.02,0,.04h.04s0,.02,0,.04h.04s0,.02,0,.04h.04s0,.02,0,.04h.04s0,.02,0,.04h.04s0,.02,0,.04h.04s0,.02,0,.04h.04s0,.02,0,.04h.04s0,.02,0,.04h.04s0,.02,0,.04h.04s0,.02,0,.04h.04s0,.02,0,.04h.04s0,.02,0,.04h.04s0,.02,0,.04h.04s0,.02,0,.04h.04s0,.02,0,.04h.04s0,.02,0,.04h.04s0,.02,0,.04h.04s0,.02,0,.04h.04s0,.02,0,.04h.04s0,.02,0,.04h.04s0,.02,0,.04h.04s0,.02,0,.04h.04s0,.02,0,.04h.04s0,.02,0,.04h.04s0,.02,0,.04h.04s0,.02,0,.04h.04s0,.02,0,.04h.04s0,.02,0,.04h.04s0,.02,0,.04h.04s0,.02,0,.04h.04s0,.02,0,.04h.04s0,.02,0,.04h.04s0,.02,0,.04h.04s0,.02,0,.04h.04s0,.02,0,.04h.04s0,.02,0,.04h.04s0,.02,0,.04h.04s0,.02,0,.04h.04s0,.02,0,.04h.04s0,.02,0,.04h.04s0,.02,0,.04h.04s0,.02,0,.04h.04s0,.02,0,.04h.04s0,.02,0,.04h.04s0,.02,0,.04h.04s0,.02,0,.04h.04s0,.02,0,.04h.04s0,.02,0,.04h.04s0,.02,0,.04h.04s0,.02,0,.04h.04s0,.02,0,.04h.04s0,.02,0,.04h.04s0,.02,0,.04h.04s0,.02,0,.04h.04s0,.02,0,.04h.04s0,.02,0,.04h.04s0,.02,0,.04h.04s0,.02,0,.04h.04s0,.02,0,.04h.04s0,.02,0,.04h.04s0,.02,0,.04h.04s0,.02,0,.04h.04s0,.02,0,.04h.04s0,.02,0,.04h.04s0,.02,0,.04h.04s0,.02,0,.04h.04s0,.02,0,.04h.04s0,.02,0,.04h.04s0,.02,0,.04h.04s0,.02,0,.04h.04s0,.02,0,.04h.04s0,.02,0,.04h.04s0,.02,0,.04h.04s0,.02,0,.04h.04s0,.02,0,.04h.04s0,.02,0,.04h.04s0,.02,0,.04h.04s0,.02,0,.04h.04s0,.02,0,.04h.04s0,.02,0,.04h.04s0,.02,0,.04h.04s0,.02,0,.04h.04s0,.02,0,.04h.04s0,.02,0,.04h.04s0,.02,0,.04h.04s0,.02,0,.04h12.18c-1.8.9-3.07,2.11-3.78,3.64-.78,1.66-1.17,4.24-1.17,7.74v2.64h.04v.04h.04v.04h.04v.04h.04v.04h.04v.04h.04v.04h.04v.04h.04v.04h.04v.04h.04v.04h.04v.04h.04v.04h.04v.04h.04v.04h.04v.04h.04v.04h.04v.04h.04v.04h.04v.04h.04v.04h.04v.04h.04v.04h.04v.04h.04v.04h.04v.04h.04v.04h.04v.04h.04v.04h.04v.04h.04v.04h.04v.04h.04v.04h.04v.04h.04v.04h.04v.04h.04v.04h.04v.04h.04v.04h.04v.04h.04v.04h.04v.04h.04v.04h.04v.04h.04v.04h.04v.04h.04v.04h.04v.04h.04v.04h.04v.04h.04v.04h.04v.04h.04v.04h.04v.04h.04v.04h.04v.04h.04v.04h.04v.04h.04v.04h.04v.04h.04v.04h.04v.04h.04v.04h.04v.04h.04v.04h.04v.04h.04v.04h.04v.04h.04v.04h.04v.04h.04v.04h.04v.04h.04v.04h.04v.04h.04v.04h.04v.04h.04v.04h.04v.04h.04v.04h.04v.04h.04v.04h.04v.04h.04v.04h.04v.04h.04v.04h.04v.04h.04v.04h.04v.04h.04v.04h.04v.04h.04v.04h.04c-.84.46-1.62,1.05-2.34,1.78-1.93,1.94-2.89,4.31-2.89,7.11s.93,5.25,2.79,7.11c0,0,.01.01.02.02,0,0,.01.01.02.02s.01.01.02.02c0,0,.01.01.02.02s.01.01.02.02c0,0,.01.01.02.02s.01.01.02.02c0,0,.01.01.02.02s.01.01.02.02c0,0,.01.01.02.02s.01.01.02.02c0,0,.01.01.02.02s.01.01.02.02c0,0,.01.01.02.02s.01.01.02.02c0,0,.01.01.02.02s.01.01.02.02c0,0,.01.01.02.02s.01.01.02.02c0,0,.01.01.02.02s.01.01.02.02c0,0,.01.01.02.02s.01.01.02.02c0,0,.01.01.02.02s.01.01.02.02c0,0,.01.01.02.02s.01.01.02.02c0,0,.01.01.02.02s.01.01.02.02c0,0,.01.01.02.02s.01.01.02.02c0,0,.01.01.02.02s.01.01.02.02c0,0,.01.01.02.02s.01.01.02.02c0,0,.01.01.02.02s.01.01.02.02c0,0,.01.01.02.02s.01.01.02.02c0,0,.01.01.02.02s.01.01.02.02c0,0,.01.01.02.02s.01.01.02.02c0,0,.01.01.02.02s.01.01.02.02c0,0,.01.01.02.02s.01.01.02.02c0,0,.01.01.02.02s.01.01.02.02c0,0,.01.01.02.02s.01.01.02.02c0,0,.01.01.02.02s.01.01.02.02c0,0,.01.01.02.02s.01.01.02.02c0,0,.01.01.02.02s.01.01.02.02c0,0,.01.01.02.02s.01.01.02.02c0,0,.01.01.02.02s.01.01.02.02c0,0,.01.01.02.02s.01.01.02.02c0,0,.01.01.02.02s.01.01.02.02c0,0,.01.01.02.02s.01.01.02.02c0,0,.01.01.02.02s.01.01.02.02c0,0,.01.01.02.02s.01.01.02.02c0,0,.01.01.02.02s.01.01.02.02c0,0,.01.01.02.02s.01.01.02.02c0,0,.01.01.02.02s.01.01.02.02c0,0,.01.01.02.02s.01.01.02.02c0,0,.01.01.02.02s.01.01.02.02c0,0,.01.01.02.02s.01.01.02.02c0,0,.01.01.02.02s.01.01.02.02c0,0,.01.01.02.02s.01.01.02.02c0,0,.01.01.02.02s.01.01.02.02c0,0,.01.01.02.02s.01.01.02.02c0,0,.01.01.02.02s.01.01.02.02c0,0,.01.01.02.02s.01.01.02.02c0,0,.01.01.02.02s.01.01.02.02c0,0,.01.01.02.02s.01.01.02.02c0,0,.01.01.02.02s.01.01.02.02c0,0,.01.01.02.02s.01.01.02.02c0,0,.01.01.02.02s.01.01.02.02c0,0,.01.01.02.02s.01.01.02.02c0,0,.01.01.02.02s.01.01.02.02c0,0,.01.01.02.02s.01.01.02.02c0,0,.01.01.02.02s.01.01.02.02c0,0,.01.01.02.02s.01.01.02.02c0,0,.01.01.02.02s.01.01.02.02c0,0,.01.01.02.02s.01.01.02.02c0,0,.01.01.02.02s.01.01.02.02c0,0,.01.01.02.02s.01.01.02.02c0,0,.01.01.02.02s.01.01.02.02c0,0,.01.01.02.02s.01.01.02.02c0,0,.01.01.02.02s.01.01.02.02c0,0,.01.01.02.02s.01.01.02.02c0,0,.01.01.02.02s.01.01.02.02c0,0,.01.01.02.02s.01.01.02.02c0,0,.01.01.02.02s.01.01.02.02c0,0,.01.01.02.02s.01.01.02.02c0,0,.01.01.02.02s.01.01.02.02c0,0,.01.01.02.02s.01.01.02.02c0,0,.01.01.02.02s.01.01.02.02c0,0,.01.01.02.02s.01.01.02.02c0,0,.01.01.02.02s.01.01.02.02c0,0,.01.01.02.02s.01.01.02.02c0,0,.01.01.02.02s.01.01.02.02c0,0,.01.01.02.02s.01.01.02.02c0,0,.01.01.02.02s.01.01.02.02c0,0,.01.01.02.02s.01.01.02.02c0,0,.01.01.02.02s.01.01.02.02c0,0,.01.01.02.02s.01.01.02.02c0,0,.01.01.02.02s.01.01.02.02c0,0,.01.01.02.02s.01.01.02.02c0,0,.01.01.02.02s.01.01.02.02c0,0,.01.01.02.02s.01.01.02.02c0,0,.01.01.02.02s.01.01.02.02c0,0,.01.01.02.02s.01.01.02.02c0,0,.01.01.02.02s.01.01.02.02c0,0,.01.01.02.02s.01.01.02.02c0,0,.01.01.02.02s.01.01.02.02c0,0,.01.01.02.02s.01.01.02.02c0,0,.01.01.02.02,1.86,1.86,4.23,2.79,7.11,2.79s5.13-.96,7.09-2.87c1.96-1.91,2.94-4.24,2.94-6.98s-.99-5.1-2.96-7.09c0,0-.01-.01-.02-.02,0,0-.01-.01-.02-.02,0,0-.01-.01-.02-.02,0,0-.01-.01-.02-.02,0,0-.01-.01-.02-.02,0,0-.01-.01-.02-.02,0,0-.01-.01-.02-.02,0,0-.01-.01-.02-.02,0,0-.01-.01-.02-.02,0,0-.01-.01-.02-.02,0,0-.01-.01-.02-.02,0,0-.01-.01-.02-.02,0,0-.01-.01-.02-.02,0,0-.01-.01-.02-.02,0,0-.01-.01-.02-.02,0,0-.01-.01-.02-.02,0,0-.01-.01-.02-.02,0,0-.01-.01-.02-.02,0,0-.01-.01-.02-.02,0,0-.01-.01-.02-.02,0,0-.01-.01-.02-.02,0,0-.01-.01-.02-.02,0,0-.01-.01-.02-.02,0,0-.01-.01-.02-.02,0,0-.01-.01-.02-.02,0,0-.01-.01-.02-.02,0,0-.01-.01-.02-.02,0,0-.01-.01-.02-.02,0,0-.01-.01-.02-.02,0,0-.01-.01-.02-.02,0,0-.01-.01-.02-.02,0,0-.01-.01-.02-.02,0,0-.01-.01-.02-.02,0,0-.01-.01-.02-.02,0,0-.01-.01-.02-.02,0,0-.01-.01-.02-.02,0,0-.01-.01-.02-.02,0,0-.01-.01-.02-.02,0,0-.01-.01-.02-.02,0,0-.01-.01-.02-.02,0,0-.01-.01-.02-.02,0,0-.01-.01-.02-.02,0,0-.01-.01-.02-.02,0,0-.01-.01-.02-.02,0,0-.01-.01-.02-.02,0,0-.01-.01-.02-.02,0,0-.01-.01-.02-.02,0,0-.01-.01-.02-.02,0,0-.01-.01-.02-.02,0,0-.01-.01-.02-.02,0,0-.01-.01-.02-.02,0,0-.01-.01-.02-.02,0,0-.01-.01-.02-.02,0,0-.01-.01-.02-.02,0,0-.01-.01-.02-.02,0,0-.01-.01-.02-.02,0,0-.01-.01-.02-.02,0,0-.01-.01-.02-.02,0,0-.01-.01-.02-.02,0,0-.01-.01-.02-.02,0,0-.01-.01-.02-.02,0,0-.01-.01-.02-.02,0,0-.01-.01-.02-.02,0,0-.01-.01-.02-.02,0,0-.01-.01-.02-.02,0,0-.01-.01-.02-.02,0,0-.01-.01-.02-.02,0,0-.01-.01-.02-.02,0,0-.01-.01-.02-.02,0,0-.01-.01-.02-.02,0,0-.01-.01-.02-.02,0,0-.01-.01-.02-.02,0,0-.01-.01-.02-.02,0,0-.01-.01-.02-.02,0,0-.01-.01-.02-.02,0,0-.01-.01-.02-.02,0,0-.01-.01-.02-.02,0,0-.01-.01-.02-.02,0,0-.01-.01-.02-.02,0,0-.01-.01-.02-.02,0,0-.01-.01-.02-.02,0,0-.01-.01-.02-.02,0,0-.01-.01-.02-.02,0,0-.01-.01-.02-.02,0,0-.01-.01-.02-.02,0,0-.01-.01-.02-.02,0,0-.01-.01-.02-.02,0,0-.01-.01-.02-.02,0,0-.01-.01-.02-.02,0,0-.01-.01-.02-.02,0,0-.01-.01-.02-.02,0,0-.01-.01-.02-.02,0,0-.01-.01-.02-.02,0,0-.01-.01-.02-.02,0,0-.01-.01-.02-.02,0,0-.01-.01-.02-.02,0,0-.01-.01-.02-.02,0,0-.01-.01-.02-.02,0,0-.01-.01-.02-.02,0,0-.01-.01-.02-.02,0,0-.01-.01-.02-.02,0,0-.01-.01-.02-.02,0,0-.01-.01-.02-.02,0,0-.01-.01-.02-.02,0,0-.01-.01-.02-.02,0,0-.01-.01-.02-.02,0,0-.01-.01-.02-.02,0,0-.01-.01-.02-.02,0,0-.01-.01-.02-.02,0,0-.01-.01-.02-.02,0,0-.01-.01-.02-.02,0,0-.01-.01-.02-.02,0,0-.01-.01-.02-.02,0,0-.01-.01-.02-.02,0,0-.01-.01-.02-.02,0,0-.01-.01-.02-.02,0,0-.01-.01-.02-.02,0,0-.01-.01-.02-.02,0,0-.01-.01-.02-.02,0,0-.01-.01-.02-.02,0,0-.01-.01-.02-.02,0,0-.01-.01-.02-.02,0,0-.01-.01-.02-.02,0,0-.01-.01-.02-.02,0,0-.01-.01-.02-.02,0,0-.01-.01-.02-.02,0,0-.01-.01-.02-.02,0,0-.01-.01-.02-.02,0,0-.01-.01-.02-.02,0,0-.01-.01-.02-.02,0,0-.01-.01-.02-.02,0,0-.01-.01-.02-.02,0,0-.01-.01-.02-.02,0,0-.01-.01-.02-.02,0,0-.01-.01-.02-.02,0,0-.01-.01-.02-.02,0,0-.01-.01-.02-.02,0,0-.01-.01-.02-.02,0,0-.01-.01-.02-.02,0,0-.01-.01-.02-.02,0,0-.01-.01-.02-.02,0,0-.01-.01-.02-.02,0,0-.01-.01-.02-.02,0,0-.01-.01-.02-.02,0,0-.01-.01-.02-.02,0,0-.01-.01-.02-.02,0,0-.01-.01-.02-.02,0,0-.01-.01-.02-.02,0,0-.01-.01-.02-.02,0,0-.01-.01-.02-.02,0,0-.01-.01-.02-.02,0,0-.01-.01-.02-.02,0,0-.01-.01-.02-.02,0,0-.01-.01-.02-.02,0,0-.01-.01-.02-.02,0,0-.01-.01-.02-.02,0,0-.01-.01-.02-.02,0,0-.01-.01-.02-.02,0,0-.01-.01-.02-.02,0,0-.01-.01-.02-.02,0,0-.01-.01-.02-.02,0,0-.01-.01-.02-.02,0,0-.01-.01-.02-.02,0,0-.01-.01-.02-.02,0,0-.01-.01-.02-.02,0,0-.01-.01-.02-.02,0,0-.01-.01-.02-.02,0,0-.01-.01-.02-.02,0,0-.01-.01-.02-.02,0,0-.01-.01-.02-.02,0,0-.01-.01-.02-.02,0,0-.01-.01-.02-.02,0,0-.01-.01-.02-.02,0,0-.01-.01-.02-.02,0,0-.01-.01-.02-.02,0,0-.01-.01-.02-.02,0,0-.01-.01-.02-.02,0,0-.01-.01-.02-.02,0,0-.01-.01-.02-.02,0,0-.01-.01-.02-.02,0,0-.01-.01-.02-.02,0,0-.01-.01-.02-.02,0,0-.01-.01-.02-.02,0,0-.01-.01-.02-.02-.72-.72-1.49-1.31-2.31-1.77h6.18c0-2.01.18-3.33.55-3.94.36-.61,1.38-1.34,3.06-2.18,5.14-2.57,7.72-7.03,7.72-13.38,0-5.14-1.8-9.46-5.39-12.94ZM361.92,210.17c.06,0,.11.01.16.01,0,.06.01.11.01.16,0,1.73-1.08,3.08-3.23,4.03l-1.01.44c.24-3.09,1.59-4.65,4.06-4.65Z"/>
          <path class="cls-13" d="M358.58,232.08c2.74,0,5.1.99,7.07,2.98,1.97,1.99,2.96,4.35,2.96,7.09s-.98,5.07-2.94,6.98c-1.96,1.91-4.32,2.87-7.09,2.87s-5.25-.93-7.11-2.79c-1.86-1.86-2.79-4.23-2.79-7.11s.96-5.17,2.89-7.11c1.93-1.94,4.26-2.92,7-2.92ZM366.09,229.86h-15.56v-2.64c0-3.5.39-6.07,1.17-7.74.78-1.66,2.21-2.96,4.28-3.88l2.85-1.26c2.15-.95,3.23-2.29,3.23-4.03,0-1.01-.35-1.86-1.05-2.56-.7-.7-1.55-1.05-2.56-1.05-2.74,0-4.11,1.9-4.11,5.7h-14.47c0-5.09,1.17-9.24,3.52-12.46,1.73-2.38,3.98-4.26,6.75-5.66,2.77-1.4,5.63-2.1,8.6-2.1,5.26,0,9.68,1.74,13.28,5.22,3.59,3.48,5.39,7.8,5.39,12.94,0,6.35-2.57,10.81-7.72,13.38-1.68.84-2.7,1.57-3.06,2.18-.36.62-.55,1.93-.55,3.94Z"/>
        </g>
        <g>
          <path class="cls-12" d="M196.31,215.77s0,0,0,0c0,0-.01-.01-.02-.02,0,0,0,0,0,0,0,0-.01-.01-.02-.02,0,0,0,0,0,0,0,0-.01-.01-.02-.02,0,0,0,0,0,0,0,0-.01-.01-.02-.02,0,0,0,0,0,0,0,0-.01-.01-.02-.02,0,0,0,0,0,0,0,0-.01-.01-.02-.02,0,0,0,0,0,0,0,0-.01-.01-.02-.02,0,0,0,0,0,0,0,0-.01-.01-.02-.02,0,0,0,0,0,0,0,0-.01-.01-.02-.02,0,0,0,0,0,0,0,0-.01-.01-.02-.02,0,0,0,0,0,0,0,0-.01-.01-.02-.02,0,0,0,0,0,0,0,0-.01-.01-.02-.02,0,0,0,0,0,0,0,0-.01-.01-.02-.02,0,0,0,0,0,0,0,0-.01-.01-.02-.02,0,0,0,0,0,0,0,0-.01-.01-.02-.02,0,0,0,0,0,0,0,0-.01-.01-.02-.02,0,0,0,0,0,0,0,0-.01-.01-.02-.02,0,0,0,0,0,0,0,0-.01-.01-.02-.02,0,0,0,0,0,0,0,0-.01-.01-.02-.02,0,0,0,0,0,0,0,0-.01-.01-.02-.02,0,0,0,0,0,0,0,0-.01-.01-.02-.02,0,0,0,0,0,0,0,0-.01-.01-.02-.02,0,0,0,0,0,0,0,0-.01-.01-.02-.02,0,0,0,0,0,0,0,0-.01-.01-.02-.02,0,0,0,0,0,0,0,0-.01-.01-.02-.02,0,0,0,0,0,0,0,0-.01-.01-.02-.02,0,0,0,0,0,0,0,0-.01-.01-.02-.02,0,0,0,0,0,0,0,0-.01-.01-.02-.02,0,0,0,0,0,0,0,0-.01-.01-.02-.02,0,0,0,0,0,0,0,0-.01-.01-.02-.02,0,0,0,0,0,0,0,0-.01-.01-.02-.02,0,0,0,0,0,0,0,0-.01-.01-.02-.02,0,0,0,0,0,0,0,0-.01-.01-.02-.02,0,0,0,0,0,0,0,0-.01-.01-.02-.02,0,0,0,0,0,0,0,0-.01-.01-.02-.02,0,0,0,0,0,0,0,0-.01-.01-.02-.02,0,0,0,0,0,0,0,0-.01-.01-.02-.02,0,0,0,0,0,0,0,0-.01-.01-.02-.02,0,0,0,0,0,0,0,0-.01-.01-.02-.02,0,0,0,0,0,0,0,0-.01-.01-.02-.02,0,0,0,0,0,0,0,0-.01-.01-.02-.02,0,0,0,0,0,0,0,0-.01-.01-.02-.02,0,0,0,0,0,0,0,0-.01-.01-.02-.02,0,0,0,0,0,0,0,0-.01-.01-.02-.02,0,0,0,0,0,0,0,0-.01-.01-.02-.02,0,0,0,0,0,0,0,0-.01-.01-.02-.02,0,0,0,0,0,0,0,0-.01-.01-.02-.02,0,0,0,0,0,0,0,0-.01-.01-.02-.02,0,0,0,0,0,0,0,0-.01-.01-.02-.02,0,0,0,0,0,0,0,0-.01-.01-.02-.02,0,0,0,0,0,0,0,0-.01-.01-.02-.02,0,0,0,0,0,0,0,0-.01-.01-.02-.02,0,0,0,0,0,0,0,0-.01-.01-.02-.02,0,0,0,0,0,0,0,0-.01-.01-.02-.02,0,0,0,0,0,0,0,0-.01-.01-.02-.02,0,0,0,0,0,0,0,0-.01-.01-.02-.02,0,0,0,0,0,0,0,0-.01-.01-.02-.02,0,0,0,0,0,0,0,0-.01-.01-.02-.02,0,0,0,0,0,0,0,0-.01-.01-.02-.02,0,0,0,0,0,0,0,0-.01-.01-.02-.02,0,0,0,0,0,0,0,0-.01-.01-.02-.02,0,0,0,0,0,0,0,0-.01-.01-.02-.02,0,0,0,0,0,0,0,0-.01-.01-.02-.02,0,0,0,0,0,0,0,0-.01-.01-.02-.02,0,0,0,0,0,0,0,0-.01-.01-.02-.02,0,0,0,0,0,0,0,0-.01-.01-.02-.02,0,0,0,0,0,0,0,0-.01-.01-.02-.02,0,0,0,0,0,0,0,0-.01-.01-.02-.02,0,0,0,0,0,0,0,0-.01-.01-.02-.02,0,0,0,0,0,0,0,0-.01-.01-.02-.02,0,0,0,0,0,0,0,0-.01-.01-.02-.02,0,0,0,0,0,0,0,0-.01-.01-.02-.02,0,0,0,0,0,0,0,0-.01-.01-.02-.02,0,0,0,0,0,0,0,0-.01-.01-.02-.02,0,0,0,0,0,0,0,0-.01-.01-.02-.02,0,0,0,0,0,0,0,0-.01-.01-.02-.02,0,0,0,0,0,0,0,0-.01-.01-.02-.02,0,0,0,0,0,0,0,0-.01-.01-.02-.02,0,0,0,0,0,0,0,0-.01-.01-.02-.02,0,0,0,0,0,0,0,0-.01-.01-.02-.02,0,0,0,0,0,0,0,0-.01-.01-.02-.02,0,0,0,0,0,0,0,0-.01-.01-.02-.02,0,0,0,0,0,0,0,0-.01-.01-.02-.02,0,0,0,0,0,0,0,0-.01-.01-.02-.02,0,0,0,0,0,0,0,0-.01-.01-.02-.02,0,0,0,0,0,0,0,0-.01-.01-.02-.02,0,0,0,0,0,0,0,0-.01-.01-.02-.02,0,0,0,0,0,0,0,0-.01-.01-.02-.02,0,0,0,0,0,0,0,0-.01-.01-.02-.02,0,0,0,0,0,0,0,0-.01-.01-.02-.02,0,0,0,0,0,0,0,0-.01-.01-.02-.02,0,0,0,0,0,0,0,0-.01-.01-.02-.02-2.49-2.41-5.55-3.62-9.19-3.62-2.05,0-4.04.48-5.96,1.45-1.92.97-3.48,2.28-4.68,3.92-1.63,2.23-2.44,5.1-2.44,8.63h.03s0,.02,0,.03h.03s0,.02,0,.03h.03s0,.02,0,.03h.03s0,.02,0,.03h.03s0,.02,0,.03h.03s0,.02,0,.03h.03s0,.02,0,.03h.03s0,.02,0,.03h.03s0,.02,0,.03h.03s0,.02,0,.03h.03s0,.02,0,.03h.03s0,.02,0,.03h.03s0,.02,0,.03h.03s0,.02,0,.03h.03s0,.02,0,.03h.03s0,.02,0,.03h.03s0,.02,0,.03h.03s0,.02,0,.03h.03s0,.02,0,.03h.03s0,.02,0,.03h.03s0,.02,0,.03h.03s0,.02,0,.03h.03s0,.02,0,.03h.03s0,.02,0,.03h.03s0,.02,0,.03h.03s0,.02,0,.03h.03s0,.02,0,.03h.03s0,.02,0,.03h.03s0,.02,0,.03h.03s0,.02,0,.03h.03s0,.02,0,.03h.03s0,.02,0,.03h.03s0,.02,0,.03h.03s0,.02,0,.03h.03s0,.02,0,.03h.03s0,.02,0,.03h.03s0,.02,0,.03h.03s0,.02,0,.03h.03s0,.02,0,.03h.03s0,.02,0,.03h.03s0,.02,0,.03h.03s0,.02,0,.03h.03s0,.02,0,.03h.03s0,.02,0,.03h.03s0,.02,0,.03h.03s0,.02,0,.03h.03s0,.02,0,.03h.03s0,.02,0,.03h.03s0,.02,0,.03h.03s0,.02,0,.03h.03s0,.02,0,.03h.03s0,.02,0,.03h.03s0,.02,0,.03h.03s0,.02,0,.03h.03s0,.02,0,.03h.03s0,.02,0,.03h.03s0,.02,0,.03h.03s0,.02,0,.03h.03s0,.02,0,.03h.03s0,.02,0,.03h.03s0,.02,0,.03h.03s0,.02,0,.03h.03s0,.02,0,.03h.03s0,.02,0,.03h.03s0,.02,0,.03h.03s0,.02,0,.03h.03s0,.02,0,.03h.03s0,.02,0,.03h.03s0,.02,0,.03h.03s0,.02,0,.03h.03s0,.02,0,.03h.03s0,.02,0,.03h.03s0,.02,0,.03h.03s0,.02,0,.03h.03s0,.02,0,.03h.03s0,.02,0,.03h.03s0,.02,0,.03h.03s0,.02,0,.03h.03s0,.02,0,.03h.03s0,.02,0,.03h.03s0,.02,0,.03h.03s0,.02,0,.03h.03s0,.02,0,.03h.03s0,.02,0,.03h.03s0,.02,0,.03h.03s0,.02,0,.03h.03s0,.02,0,.03h.03s0,.02,0,.03h.03s0,.02,0,.03h.03s0,.02,0,.03h.03s0,.02,0,.03h.03s0,.02,0,.03h8.44c-1.25.63-2.12,1.46-2.62,2.52-.54,1.15-.81,2.94-.81,5.36v1.83h.03v.03h.03v.03h.03v.03h.03v.03h.03v.03h.03v.03h.03v.03h.03v.03h.03v.03h.03v.03h.03v.03h.03v.03h.03v.03h.03v.03h.03v.03h.03v.03h.03v.03h.03v.03h.03v.03h.03v.03h.03v.03h.03v.03h.03v.03h.03v.03h.03v.03h.03v.03h.03v.03h.03v.03h.03v.03h.03v.03h.03v.03h.03v.03h.03v.03h.03v.03h.03v.03h.03v.03h.03v.03h.03v.03h.03v.03h.03v.03h.03v.03h.03v.03h.03v.03h.03v.03h.03v.03h.03v.03h.03v.03h.03v.03h.03v.03h.03v.03h.03v.03h.03v.03h.03v.03h.03v.03h.03v.03h.03v.03h.03v.03h.03v.03h.03v.03h.03v.03h.03v.03h.03v.03h.03v.03h.03v.03h.03v.03h.03v.03h.03v.03h.03v.03h.03v.03h.03v.03h.03v.03h.03v.03h.03v.03h.03v.03h.03v.03h.03v.03h.03v.03h.03v.03h.03v.03h.03v.03h.03v.03h.03v.03h.03v.03h.03v.03h.03v.03h.03v.03h.03v.03h.03v.03h.03v.03h.03v.03h.03c-.58.32-1.12.73-1.62,1.24-1.34,1.35-2,2.99-2,4.92s.64,3.64,1.93,4.92c0,0,0,0,.01.01,0,0,0,0,.01.01s0,0,.01.01c0,0,0,0,.01.01s0,0,.01.01c0,0,0,0,.01.01s0,0,.01.01c0,0,0,0,.01.01s0,0,.01.01c0,0,0,0,.01.01s0,0,.01.01c0,0,0,0,.01.01s0,0,.01.01c0,0,0,0,.01.01s0,0,.01.01c0,0,0,0,.01.01s0,0,.01.01c0,0,0,0,.01.01s0,0,.01.01c0,0,0,0,.01.01s0,0,.01.01c0,0,0,0,.01.01s0,0,.01.01c0,0,0,0,.01.01s0,0,.01.01c0,0,0,0,.01.01s0,0,.01.01c0,0,0,0,.01.01s0,0,.01.01c0,0,0,0,.01.01s0,0,.01.01c0,0,0,0,.01.01s0,0,.01.01c0,0,0,0,.01.01s0,0,.01.01c0,0,0,0,.01.01s0,0,.01.01c0,0,0,0,.01.01s0,0,.01.01c0,0,0,0,.01.01s0,0,.01.01c0,0,0,0,.01.01s0,0,.01.01c0,0,0,0,.01.01s0,0,.01.01c0,0,0,0,.01.01s0,0,.01.01c0,0,0,0,.01.01s0,0,.01.01c0,0,0,0,.01.01s0,0,.01.01c0,0,0,0,.01.01s0,0,.01.01c0,0,0,0,.01.01s0,0,.01.01c0,0,0,0,.01.01s0,0,.01.01c0,0,0,0,.01.01s0,0,.01.01c0,0,0,0,.01.01s0,0,.01.01c0,0,0,0,.01.01s0,0,.01.01c0,0,0,0,.01.01s0,0,.01.01c0,0,0,0,.01.01s0,0,.01.01c0,0,0,0,.01.01s0,0,.01.01c0,0,0,0,.01.01s0,0,.01.01c0,0,0,0,.01.01s0,0,.01.01c0,0,0,0,.01.01s0,0,.01.01c0,0,0,0,.01.01s0,0,.01.01c0,0,0,0,.01.01s0,0,.01.01c0,0,0,0,.01.01s0,0,.01.01c0,0,0,0,.01.01s0,0,.01.01c0,0,0,0,.01.01s0,0,.01.01c0,0,0,0,.01.01s0,0,.01.01c0,0,0,0,.01.01s0,0,.01.01c0,0,0,0,.01.01s0,0,.01.01c0,0,0,0,.01.01s0,0,.01.01c0,0,0,0,.01.01s0,0,.01.01c0,0,0,0,.01.01s0,0,.01.01c0,0,0,0,.01.01s0,0,.01.01c0,0,0,0,.01.01s0,0,.01.01c0,0,0,0,.01.01s0,0,.01.01c0,0,0,0,.01.01s0,0,.01.01c0,0,0,0,.01.01s0,0,.01.01c0,0,0,0,.01.01s0,0,.01.01c0,0,0,0,.01.01s0,0,.01.01c0,0,0,0,.01.01s0,0,.01.01c0,0,0,0,.01.01s0,0,.01.01c0,0,0,0,.01.01s0,0,.01.01c0,0,0,0,.01.01s0,0,.01.01c0,0,0,0,.01.01s0,0,.01.01c0,0,0,0,.01.01s0,0,.01.01c0,0,0,0,.01.01s0,0,.01.01c0,0,0,0,.01.01s0,0,.01.01c0,0,0,0,.01.01s0,0,.01.01c0,0,0,0,.01.01s0,0,.01.01c0,0,0,0,.01.01s0,0,.01.01c0,0,0,0,.01.01s0,0,.01.01c0,0,0,0,.01.01s0,0,.01.01c0,0,0,0,.01.01s0,0,.01.01c0,0,0,0,.01.01s0,0,.01.01c0,0,0,0,.01.01s0,0,.01.01c0,0,0,0,.01.01s0,0,.01.01c0,0,0,0,.01.01s0,0,.01.01c0,0,0,0,.01.01s0,0,.01.01c0,0,0,0,.01.01s0,0,.01.01c0,0,0,0,.01.01s0,0,.01.01c0,0,0,0,.01.01s0,0,.01.01c0,0,0,0,.01.01s0,0,.01.01c0,0,0,0,.01.01s0,0,.01.01c0,0,0,0,.01.01s0,0,.01.01c0,0,0,0,.01.01s0,0,.01.01c0,0,0,0,.01.01s0,0,.01.01c0,0,0,0,.01.01s0,0,.01.01c0,0,0,0,.01.01s0,0,.01.01c0,0,0,0,.01.01s0,0,.01.01c0,0,0,0,.01.01s0,0,.01.01c0,0,0,0,.01.01s0,0,.01.01c0,0,0,0,.01.01s0,0,.01.01c0,0,0,0,.01.01s0,0,.01.01c0,0,0,0,.01.01s0,0,.01.01c0,0,0,0,.01.01s0,0,.01.01c0,0,0,0,.01.01,1.29,1.29,2.93,1.93,4.92,1.93s3.55-.66,4.91-1.99c1.36-1.33,2.03-2.94,2.03-4.84s-.68-3.53-2.05-4.91c0,0,0,0-.01-.01,0,0,0,0-.01-.01,0,0,0,0-.01-.01,0,0,0,0-.01-.01,0,0,0,0-.01-.01,0,0,0,0-.01-.01,0,0,0,0-.01-.01,0,0,0,0-.01-.01,0,0,0,0-.01-.01,0,0,0,0-.01-.01,0,0,0,0-.01-.01,0,0,0,0-.01-.01,0,0,0,0-.01-.01,0,0,0,0-.01-.01,0,0,0,0-.01-.01,0,0,0,0-.01-.01,0,0,0,0-.01-.01,0,0,0,0-.01-.01,0,0,0,0-.01-.01,0,0,0,0-.01-.01,0,0,0,0-.01-.01,0,0,0,0-.01-.01,0,0,0,0-.01-.01,0,0,0,0-.01-.01,0,0,0,0-.01-.01,0,0,0,0-.01-.01,0,0,0,0-.01-.01,0,0,0,0-.01-.01,0,0,0,0-.01-.01,0,0,0,0-.01-.01,0,0,0,0-.01-.01,0,0,0,0-.01-.01,0,0,0,0-.01-.01,0,0,0,0-.01-.01,0,0,0,0-.01-.01,0,0,0,0-.01-.01,0,0,0,0-.01-.01,0,0,0,0-.01-.01,0,0,0,0-.01-.01,0,0,0,0-.01-.01,0,0,0,0-.01-.01,0,0,0,0-.01-.01,0,0,0,0-.01-.01,0,0,0,0-.01-.01,0,0,0,0-.01-.01,0,0,0,0-.01-.01,0,0,0,0-.01-.01,0,0,0,0-.01-.01,0,0,0,0-.01-.01,0,0,0,0-.01-.01,0,0,0,0-.01-.01,0,0,0,0-.01-.01,0,0,0,0-.01-.01,0,0,0,0-.01-.01,0,0,0,0-.01-.01,0,0,0,0-.01-.01,0,0,0,0-.01-.01,0,0,0,0-.01-.01,0,0,0,0-.01-.01,0,0,0,0-.01-.01,0,0,0,0-.01-.01,0,0,0,0-.01-.01,0,0,0,0-.01-.01,0,0,0,0-.01-.01,0,0,0,0-.01-.01,0,0,0,0-.01-.01,0,0,0,0-.01-.01,0,0,0,0-.01-.01,0,0,0,0-.01-.01,0,0,0,0-.01-.01,0,0,0,0-.01-.01,0,0,0,0-.01-.01,0,0,0,0-.01-.01,0,0,0,0-.01-.01,0,0,0,0-.01-.01,0,0,0,0-.01-.01,0,0,0,0-.01-.01,0,0,0,0-.01-.01,0,0,0,0-.01-.01,0,0,0,0-.01-.01,0,0,0,0-.01-.01,0,0,0,0-.01-.01,0,0,0,0-.01-.01,0,0,0,0-.01-.01,0,0,0,0-.01-.01,0,0,0,0-.01-.01,0,0,0,0-.01-.01,0,0,0,0-.01-.01,0,0,0,0-.01-.01,0,0,0,0-.01-.01,0,0,0,0-.01-.01,0,0,0,0-.01-.01,0,0,0,0-.01-.01,0,0,0,0-.01-.01,0,0,0,0-.01-.01,0,0,0,0-.01-.01,0,0,0,0-.01-.01,0,0,0,0-.01-.01,0,0,0,0-.01-.01,0,0,0,0-.01-.01,0,0,0,0-.01-.01,0,0,0,0-.01-.01,0,0,0,0-.01-.01,0,0,0,0-.01-.01,0,0,0,0-.01-.01,0,0,0,0-.01-.01,0,0,0,0-.01-.01,0,0,0,0-.01-.01,0,0,0,0-.01-.01,0,0,0,0-.01-.01,0,0,0,0-.01-.01,0,0,0,0-.01-.01,0,0,0,0-.01-.01,0,0,0,0-.01-.01,0,0,0,0-.01-.01,0,0,0,0-.01-.01,0,0,0,0-.01-.01,0,0,0,0-.01-.01,0,0,0,0-.01-.01,0,0,0,0-.01-.01,0,0,0,0-.01-.01,0,0,0,0-.01-.01,0,0,0,0-.01-.01,0,0,0,0-.01-.01,0,0,0,0-.01-.01,0,0,0,0-.01-.01,0,0,0,0-.01-.01,0,0,0,0-.01-.01,0,0,0,0-.01-.01,0,0,0,0-.01-.01,0,0,0,0-.01-.01,0,0,0,0-.01-.01,0,0,0,0-.01-.01,0,0,0,0-.01-.01,0,0,0,0-.01-.01,0,0,0,0-.01-.01,0,0,0,0-.01-.01,0,0,0,0-.01-.01,0,0,0,0-.01-.01,0,0,0,0-.01-.01,0,0,0,0-.01-.01,0,0,0,0-.01-.01,0,0,0,0-.01-.01,0,0,0,0-.01-.01,0,0,0,0-.01-.01,0,0,0,0-.01-.01,0,0,0,0-.01-.01,0,0,0,0-.01-.01,0,0,0,0-.01-.01,0,0,0,0-.01-.01,0,0,0,0-.01-.01,0,0,0,0-.01-.01,0,0,0,0-.01-.01,0,0,0,0-.01-.01,0,0,0,0-.01-.01,0,0,0,0-.01-.01,0,0,0,0-.01-.01,0,0,0,0-.01-.01,0,0,0,0-.01-.01,0,0,0,0-.01-.01,0,0,0,0-.01-.01,0,0,0,0-.01-.01,0,0,0,0-.01-.01,0,0,0,0-.01-.01,0,0,0,0-.01-.01,0,0,0,0-.01-.01,0,0,0,0-.01-.01,0,0,0,0-.01-.01,0,0,0,0-.01-.01,0,0,0,0-.01-.01,0,0,0,0-.01-.01,0,0,0,0-.01-.01,0,0,0,0-.01-.01,0,0,0,0-.01-.01,0,0,0,0-.01-.01,0,0,0,0-.01-.01,0,0,0,0-.01-.01,0,0,0,0-.01-.01,0,0,0,0-.01-.01,0,0,0,0-.01-.01,0,0,0,0-.01-.01,0,0,0,0-.01-.01,0,0,0,0-.01-.01,0,0,0,0-.01-.01-.5-.5-1.03-.91-1.6-1.23h4.28c0-1.39.13-2.3.38-2.73.25-.43.96-.93,2.12-1.51,3.56-1.78,5.35-4.87,5.35-9.27,0-3.56-1.24-6.55-3.73-8.96ZM186.91,222.2s.07,0,.11.01c0,.04.01.07.01.11,0,1.2-.75,2.13-2.24,2.79l-.7.31c.17-2.14,1.1-3.22,2.81-3.22Z"/>
          <path class="cls-13" d="M184.6,237.38c1.9,0,3.53.69,4.89,2.06,1.37,1.38,2.05,3.01,2.05,4.91s-.68,3.51-2.03,4.84c-1.36,1.33-2.99,1.99-4.91,1.99s-3.64-.64-4.92-1.93c-1.29-1.29-1.93-2.93-1.93-4.92s.67-3.58,2-4.92c1.34-1.35,2.95-2.02,4.85-2.02ZM189.8,235.84h-10.78v-1.83c0-2.42.27-4.21.81-5.36.54-1.15,1.53-2.05,2.96-2.69l1.98-.87c1.49-.66,2.24-1.59,2.24-2.79,0-.7-.24-1.29-.73-1.77-.48-.48-1.07-.73-1.77-.73-1.9,0-2.85,1.32-2.85,3.95h-10.02c0-3.52.81-6.4,2.44-8.63,1.2-1.65,2.76-2.95,4.68-3.92,1.92-.97,3.9-1.45,5.96-1.45,3.64,0,6.71,1.21,9.19,3.62,2.49,2.41,3.73,5.4,3.73,8.96,0,4.4-1.78,7.49-5.35,9.27-1.16.58-1.87,1.09-2.12,1.51-.25.43-.38,1.34-.38,2.73Z"/>
        </g>
        <g>
          <path class="cls-12" d="M334.33,215.79s0,0,0,0c0,0-.01-.01-.02-.02,0,0,0,0,0,0,0,0-.01-.01-.02-.02,0,0,0,0,0,0,0,0-.01-.01-.02-.02,0,0,0,0,0,0,0,0-.01-.01-.02-.02,0,0,0,0,0,0,0,0-.01-.01-.02-.02,0,0,0,0,0,0,0,0-.01-.01-.02-.02,0,0,0,0,0,0,0,0-.01-.01-.02-.02,0,0,0,0,0,0,0,0-.01-.01-.02-.02,0,0,0,0,0,0,0,0-.01-.01-.02-.02,0,0,0,0,0,0,0,0-.01-.01-.02-.02,0,0,0,0,0,0,0,0-.01-.01-.02-.02,0,0,0,0,0,0,0,0-.01-.01-.02-.02,0,0,0,0,0,0,0,0-.01-.01-.02-.02,0,0,0,0,0,0,0,0-.01-.01-.02-.02,0,0,0,0,0,0,0,0-.01-.01-.02-.02,0,0,0,0,0,0,0,0-.01-.01-.02-.02,0,0,0,0,0,0,0,0-.01-.01-.02-.02,0,0,0,0,0,0,0,0-.01-.01-.02-.02,0,0,0,0,0,0,0,0-.01-.01-.02-.02,0,0,0,0,0,0,0,0-.01-.01-.02-.02,0,0,0,0,0,0,0,0-.01-.01-.02-.02,0,0,0,0,0,0,0,0-.01-.01-.02-.02,0,0,0,0,0,0,0,0-.01-.01-.02-.02,0,0,0,0,0,0,0,0-.01-.01-.02-.02,0,0,0,0,0,0,0,0-.01-.01-.02-.02,0,0,0,0,0,0,0,0-.01-.01-.02-.02,0,0,0,0,0,0,0,0-.01-.01-.02-.02,0,0,0,0,0,0,0,0-.01-.01-.02-.02,0,0,0,0,0,0,0,0-.01-.01-.02-.02,0,0,0,0,0,0,0,0-.01-.01-.02-.02,0,0,0,0,0,0,0,0-.01-.01-.02-.02,0,0,0,0,0,0,0,0-.01-.01-.02-.02,0,0,0,0,0,0,0,0-.01-.01-.02-.02,0,0,0,0,0,0,0,0-.01-.01-.02-.02,0,0,0,0,0,0,0,0-.01-.01-.02-.02,0,0,0,0,0,0,0,0-.01-.01-.02-.02,0,0,0,0,0,0,0,0-.01-.01-.02-.02,0,0,0,0,0,0,0,0-.01-.01-.02-.02,0,0,0,0,0,0,0,0-.01-.01-.02-.02,0,0,0,0,0,0,0,0-.01-.01-.02-.02,0,0,0,0,0,0,0,0-.01-.01-.02-.02,0,0,0,0,0,0,0,0-.01-.01-.02-.02,0,0,0,0,0,0,0,0-.01-.01-.02-.02,0,0,0,0,0,0,0,0-.01-.01-.02-.02,0,0,0,0,0,0,0,0-.01-.01-.02-.02,0,0,0,0,0,0,0,0-.01-.01-.02-.02,0,0,0,0,0,0,0,0-.01-.01-.02-.02,0,0,0,0,0,0,0,0-.01-.01-.02-.02,0,0,0,0,0,0,0,0-.01-.01-.02-.02,0,0,0,0,0,0,0,0-.01-.01-.02-.02,0,0,0,0,0,0,0,0-.01-.01-.02-.02,0,0,0,0,0,0,0,0-.01-.01-.02-.02,0,0,0,0,0,0,0,0-.01-.01-.02-.02,0,0,0,0,0,0,0,0-.01-.01-.02-.02,0,0,0,0,0,0,0,0-.01-.01-.02-.02,0,0,0,0,0,0,0,0-.01-.01-.02-.02,0,0,0,0,0,0,0,0-.01-.01-.02-.02,0,0,0,0,0,0,0,0-.01-.01-.02-.02,0,0,0,0,0,0,0,0-.01-.01-.02-.02,0,0,0,0,0,0,0,0-.01-.01-.02-.02,0,0,0,0,0,0,0,0-.01-.01-.02-.02,0,0,0,0,0,0,0,0-.01-.01-.02-.02,0,0,0,0,0,0,0,0-.01-.01-.02-.02,0,0,0,0,0,0,0,0-.01-.01-.02-.02,0,0,0,0,0,0,0,0-.01-.01-.02-.02,0,0,0,0,0,0,0,0-.01-.01-.02-.02,0,0,0,0,0,0,0,0-.01-.01-.02-.02,0,0,0,0,0,0,0,0-.01-.01-.02-.02,0,0,0,0,0,0,0,0-.01-.01-.02-.02,0,0,0,0,0,0,0,0-.01-.01-.02-.02,0,0,0,0,0,0,0,0-.01-.01-.02-.02,0,0,0,0,0,0,0,0-.01-.01-.02-.02,0,0,0,0,0,0,0,0-.01-.01-.02-.02,0,0,0,0,0,0,0,0-.01-.01-.02-.02,0,0,0,0,0,0,0,0-.01-.01-.02-.02,0,0,0,0,0,0,0,0-.01-.01-.02-.02,0,0,0,0,0,0,0,0-.01-.01-.02-.02,0,0,0,0,0,0,0,0-.01-.01-.02-.02,0,0,0,0,0,0,0,0-.01-.01-.02-.02,0,0,0,0,0,0,0,0-.01-.01-.02-.02,0,0,0,0,0,0,0,0-.01-.01-.02-.02,0,0,0,0,0,0,0,0-.01-.01-.02-.02,0,0,0,0,0,0,0,0-.01-.01-.02-.02,0,0,0,0,0,0,0,0-.01-.01-.02-.02,0,0,0,0,0,0,0,0-.01-.01-.02-.02,0,0,0,0,0,0,0,0-.01-.01-.02-.02,0,0,0,0,0,0,0,0-.01-.01-.02-.02,0,0,0,0,0,0,0,0-.01-.01-.02-.02,0,0,0,0,0,0,0,0-.01-.01-.02-.02,0,0,0,0,0,0,0,0-.01-.01-.02-.02,0,0,0,0,0,0,0,0-.01-.01-.02-.02,0,0,0,0,0,0,0,0-.01-.01-.02-.02-2.49-2.41-5.55-3.62-9.19-3.62-2.05,0-4.04.48-5.96,1.45-1.92.97-3.48,2.28-4.68,3.92-1.63,2.23-2.44,5.1-2.44,8.63h.03s0,.02,0,.03h.03s0,.02,0,.03h.03s0,.02,0,.03h.03s0,.02,0,.03h.03s0,.02,0,.03h.03s0,.02,0,.03h.03s0,.02,0,.03h.03s0,.02,0,.03h.03s0,.02,0,.03h.03s0,.02,0,.03h.03s0,.02,0,.03h.03s0,.02,0,.03h.03s0,.02,0,.03h.03s0,.02,0,.03h.03s0,.02,0,.03h.03s0,.02,0,.03h.03s0,.02,0,.03h.03s0,.02,0,.03h.03s0,.02,0,.03h.03s0,.02,0,.03h.03s0,.02,0,.03h.03s0,.02,0,.03h.03s0,.02,0,.03h.03s0,.02,0,.03h.03s0,.02,0,.03h.03s0,.02,0,.03h.03s0,.02,0,.03h.03s0,.02,0,.03h.03s0,.02,0,.03h.03s0,.02,0,.03h.03s0,.02,0,.03h.03s0,.02,0,.03h.03s0,.02,0,.03h.03s0,.02,0,.03h.03s0,.02,0,.03h.03s0,.02,0,.03h.03s0,.02,0,.03h.03s0,.02,0,.03h.03s0,.02,0,.03h.03s0,.02,0,.03h.03s0,.02,0,.03h.03s0,.02,0,.03h.03s0,.02,0,.03h.03s0,.02,0,.03h.03s0,.02,0,.03h.03s0,.02,0,.03h.03s0,.02,0,.03h.03s0,.02,0,.03h.03s0,.02,0,.03h.03s0,.02,0,.03h.03s0,.02,0,.03h.03s0,.02,0,.03h.03s0,.02,0,.03h.03s0,.02,0,.03h.03s0,.02,0,.03h.03s0,.02,0,.03h.03s0,.02,0,.03h.03s0,.02,0,.03h.03s0,.02,0,.03h.03s0,.02,0,.03h.03s0,.02,0,.03h.03s0,.02,0,.03h.03s0,.02,0,.03h.03s0,.02,0,.03h.03s0,.02,0,.03h.03s0,.02,0,.03h.03s0,.02,0,.03h.03s0,.02,0,.03h.03s0,.02,0,.03h.03s0,.02,0,.03h.03s0,.02,0,.03h.03s0,.02,0,.03h.03s0,.02,0,.03h.03s0,.02,0,.03h.03s0,.02,0,.03h.03s0,.02,0,.03h.03s0,.02,0,.03h.03s0,.02,0,.03h.03s0,.02,0,.03h.03s0,.02,0,.03h.03s0,.02,0,.03h.03s0,.02,0,.03h.03s0,.02,0,.03h.03s0,.02,0,.03h.03s0,.02,0,.03h.03s0,.02,0,.03h.03s0,.02,0,.03h.03s0,.02,0,.03h.03s0,.02,0,.03h.03s0,.02,0,.03h.03s0,.02,0,.03h.03s0,.02,0,.03h8.44c-1.25.63-2.12,1.46-2.62,2.52-.54,1.15-.81,2.94-.81,5.36v1.83h.03v.03h.03v.03h.03v.03h.03v.03h.03v.03h.03v.03h.03v.03h.03v.03h.03v.03h.03v.03h.03v.03h.03v.03h.03v.03h.03v.03h.03v.03h.03v.03h.03v.03h.03v.03h.03v.03h.03v.03h.03v.03h.03v.03h.03v.03h.03v.03h.03v.03h.03v.03h.03v.03h.03v.03h.03v.03h.03v.03h.03v.03h.03v.03h.03v.03h.03v.03h.03v.03h.03v.03h.03v.03h.03v.03h.03v.03h.03v.03h.03v.03h.03v.03h.03v.03h.03v.03h.03v.03h.03v.03h.03v.03h.03v.03h.03v.03h.03v.03h.03v.03h.03v.03h.03v.03h.03v.03h.03v.03h.03v.03h.03v.03h.03v.03h.03v.03h.03v.03h.03v.03h.03v.03h.03v.03h.03v.03h.03v.03h.03v.03h.03v.03h.03v.03h.03v.03h.03v.03h.03v.03h.03v.03h.03v.03h.03v.03h.03v.03h.03v.03h.03v.03h.03v.03h.03v.03h.03v.03h.03v.03h.03v.03h.03v.03h.03v.03h.03v.03h.03v.03h.03v.03h.03v.03h.03v.03h.03v.03h.03c-.58.32-1.12.73-1.62,1.24-1.34,1.35-2,2.99-2,4.92s.64,3.64,1.93,4.92c0,0,0,0,.01.01,0,0,0,0,.01.01s0,0,.01.01c0,0,0,0,.01.01s0,0,.01.01c0,0,0,0,.01.01s0,0,.01.01c0,0,0,0,.01.01s0,0,.01.01c0,0,0,0,.01.01s0,0,.01.01c0,0,0,0,.01.01s0,0,.01.01c0,0,0,0,.01.01s0,0,.01.01c0,0,0,0,.01.01s0,0,.01.01c0,0,0,0,.01.01s0,0,.01.01c0,0,0,0,.01.01s0,0,.01.01c0,0,0,0,.01.01s0,0,.01.01c0,0,0,0,.01.01s0,0,.01.01c0,0,0,0,.01.01s0,0,.01.01c0,0,0,0,.01.01s0,0,.01.01c0,0,0,0,.01.01s0,0,.01.01c0,0,0,0,.01.01s0,0,.01.01c0,0,0,0,.01.01s0,0,.01.01c0,0,0,0,.01.01s0,0,.01.01c0,0,0,0,.01.01s0,0,.01.01c0,0,0,0,.01.01s0,0,.01.01c0,0,0,0,.01.01s0,0,.01.01c0,0,0,0,.01.01s0,0,.01.01c0,0,0,0,.01.01s0,0,.01.01c0,0,0,0,.01.01s0,0,.01.01c0,0,0,0,.01.01s0,0,.01.01c0,0,0,0,.01.01s0,0,.01.01c0,0,0,0,.01.01s0,0,.01.01c0,0,0,0,.01.01s0,0,.01.01c0,0,0,0,.01.01s0,0,.01.01c0,0,0,0,.01.01s0,0,.01.01c0,0,0,0,.01.01s0,0,.01.01c0,0,0,0,.01.01s0,0,.01.01c0,0,0,0,.01.01s0,0,.01.01c0,0,0,0,.01.01s0,0,.01.01c0,0,0,0,.01.01s0,0,.01.01c0,0,0,0,.01.01s0,0,.01.01c0,0,0,0,.01.01s0,0,.01.01c0,0,0,0,.01.01s0,0,.01.01c0,0,0,0,.01.01s0,0,.01.01c0,0,0,0,.01.01s0,0,.01.01c0,0,0,0,.01.01s0,0,.01.01c0,0,0,0,.01.01s0,0,.01.01c0,0,0,0,.01.01s0,0,.01.01c0,0,0,0,.01.01s0,0,.01.01c0,0,0,0,.01.01s0,0,.01.01c0,0,0,0,.01.01s0,0,.01.01c0,0,0,0,.01.01s0,0,.01.01c0,0,0,0,.01.01s0,0,.01.01c0,0,0,0,.01.01s0,0,.01.01c0,0,0,0,.01.01s0,0,.01.01c0,0,0,0,.01.01s0,0,.01.01c0,0,0,0,.01.01s0,0,.01.01c0,0,0,0,.01.01s0,0,.01.01c0,0,0,0,.01.01s0,0,.01.01c0,0,0,0,.01.01s0,0,.01.01c0,0,0,0,.01.01s0,0,.01.01c0,0,0,0,.01.01s0,0,.01.01c0,0,0,0,.01.01s0,0,.01.01c0,0,0,0,.01.01s0,0,.01.01c0,0,0,0,.01.01s0,0,.01.01c0,0,0,0,.01.01s0,0,.01.01c0,0,0,0,.01.01s0,0,.01.01c0,0,0,0,.01.01s0,0,.01.01c0,0,0,0,.01.01s0,0,.01.01c0,0,0,0,.01.01s0,0,.01.01c0,0,0,0,.01.01s0,0,.01.01c0,0,0,0,.01.01s0,0,.01.01c0,0,0,0,.01.01s0,0,.01.01c0,0,0,0,.01.01s0,0,.01.01c0,0,0,0,.01.01s0,0,.01.01c0,0,0,0,.01.01s0,0,.01.01c0,0,0,0,.01.01s0,0,.01.01c0,0,0,0,.01.01s0,0,.01.01c0,0,0,0,.01.01s0,0,.01.01c0,0,0,0,.01.01s0,0,.01.01c0,0,0,0,.01.01s0,0,.01.01c0,0,0,0,.01.01s0,0,.01.01c0,0,0,0,.01.01s0,0,.01.01c0,0,0,0,.01.01s0,0,.01.01c0,0,0,0,.01.01s0,0,.01.01c0,0,0,0,.01.01s0,0,.01.01c0,0,0,0,.01.01s0,0,.01.01c0,0,0,0,.01.01s0,0,.01.01c0,0,0,0,.01.01s0,0,.01.01c0,0,0,0,.01.01s0,0,.01.01c0,0,0,0,.01.01s0,0,.01.01c0,0,0,0,.01.01s0,0,.01.01c0,0,0,0,.01.01s0,0,.01.01c0,0,0,0,.01.01s0,0,.01.01c0,0,0,0,.01.01s0,0,.01.01c0,0,0,0,.01.01s0,0,.01.01c0,0,0,0,.01.01,1.29,1.29,2.93,1.93,4.92,1.93s3.55-.66,4.91-1.99c1.36-1.33,2.03-2.94,2.03-4.84s-.68-3.53-2.05-4.91c0,0,0,0-.01-.01,0,0,0,0-.01-.01,0,0,0,0-.01-.01,0,0,0,0-.01-.01,0,0,0,0-.01-.01,0,0,0,0-.01-.01,0,0,0,0-.01-.01,0,0,0,0-.01-.01,0,0,0,0-.01-.01,0,0,0,0-.01-.01,0,0,0,0-.01-.01,0,0,0,0-.01-.01,0,0,0,0-.01-.01,0,0,0,0-.01-.01,0,0,0,0-.01-.01,0,0,0,0-.01-.01,0,0,0,0-.01-.01,0,0,0,0-.01-.01,0,0,0,0-.01-.01,0,0,0,0-.01-.01,0,0,0,0-.01-.01,0,0,0,0-.01-.01,0,0,0,0-.01-.01,0,0,0,0-.01-.01,0,0,0,0-.01-.01,0,0,0,0-.01-.01,0,0,0,0-.01-.01,0,0,0,0-.01-.01,0,0,0,0-.01-.01,0,0,0,0-.01-.01,0,0,0,0-.01-.01,0,0,0,0-.01-.01,0,0,0,0-.01-.01,0,0,0,0-.01-.01,0,0,0,0-.01-.01,0,0,0,0-.01-.01,0,0,0,0-.01-.01,0,0,0,0-.01-.01,0,0,0,0-.01-.01,0,0,0,0-.01-.01,0,0,0,0-.01-.01,0,0,0,0-.01-.01,0,0,0,0-.01-.01,0,0,0,0-.01-.01,0,0,0,0-.01-.01,0,0,0,0-.01-.01,0,0,0,0-.01-.01,0,0,0,0-.01-.01,0,0,0,0-.01-.01,0,0,0,0-.01-.01,0,0,0,0-.01-.01,0,0,0,0-.01-.01,0,0,0,0-.01-.01,0,0,0,0-.01-.01,0,0,0,0-.01-.01,0,0,0,0-.01-.01,0,0,0,0-.01-.01,0,0,0,0-.01-.01,0,0,0,0-.01-.01,0,0,0,0-.01-.01,0,0,0,0-.01-.01,0,0,0,0-.01-.01,0,0,0,0-.01-.01,0,0,0,0-.01-.01,0,0,0,0-.01-.01,0,0,0,0-.01-.01,0,0,0,0-.01-.01,0,0,0,0-.01-.01,0,0,0,0-.01-.01,0,0,0,0-.01-.01,0,0,0,0-.01-.01,0,0,0,0-.01-.01,0,0,0,0-.01-.01,0,0,0,0-.01-.01,0,0,0,0-.01-.01,0,0,0,0-.01-.01,0,0,0,0-.01-.01,0,0,0,0-.01-.01,0,0,0,0-.01-.01,0,0,0,0-.01-.01,0,0,0,0-.01-.01,0,0,0,0-.01-.01,0,0,0,0-.01-.01,0,0,0,0-.01-.01,0,0,0,0-.01-.01,0,0,0,0-.01-.01,0,0,0,0-.01-.01,0,0,0,0-.01-.01,0,0,0,0-.01-.01,0,0,0,0-.01-.01,0,0,0,0-.01-.01,0,0,0,0-.01-.01,0,0,0,0-.01-.01,0,0,0,0-.01-.01,0,0,0,0-.01-.01,0,0,0,0-.01-.01,0,0,0,0-.01-.01,0,0,0,0-.01-.01,0,0,0,0-.01-.01,0,0,0,0-.01-.01,0,0,0,0-.01-.01,0,0,0,0-.01-.01,0,0,0,0-.01-.01,0,0,0,0-.01-.01,0,0,0,0-.01-.01,0,0,0,0-.01-.01,0,0,0,0-.01-.01,0,0,0,0-.01-.01,0,0,0,0-.01-.01,0,0,0,0-.01-.01,0,0,0,0-.01-.01,0,0,0,0-.01-.01,0,0,0,0-.01-.01,0,0,0,0-.01-.01,0,0,0,0-.01-.01,0,0,0,0-.01-.01,0,0,0,0-.01-.01,0,0,0,0-.01-.01,0,0,0,0-.01-.01,0,0,0,0-.01-.01,0,0,0,0-.01-.01,0,0,0,0-.01-.01,0,0,0,0-.01-.01,0,0,0,0-.01-.01,0,0,0,0-.01-.01,0,0,0,0-.01-.01,0,0,0,0-.01-.01,0,0,0,0-.01-.01,0,0,0,0-.01-.01,0,0,0,0-.01-.01,0,0,0,0-.01-.01,0,0,0,0-.01-.01,0,0,0,0-.01-.01,0,0,0,0-.01-.01,0,0,0,0-.01-.01,0,0,0,0-.01-.01,0,0,0,0-.01-.01,0,0,0,0-.01-.01,0,0,0,0-.01-.01,0,0,0,0-.01-.01,0,0,0,0-.01-.01,0,0,0,0-.01-.01,0,0,0,0-.01-.01,0,0,0,0-.01-.01,0,0,0,0-.01-.01,0,0,0,0-.01-.01,0,0,0,0-.01-.01,0,0,0,0-.01-.01,0,0,0,0-.01-.01,0,0,0,0-.01-.01,0,0,0,0-.01-.01,0,0,0,0-.01-.01,0,0,0,0-.01-.01,0,0,0,0-.01-.01,0,0,0,0-.01-.01,0,0,0,0-.01-.01,0,0,0,0-.01-.01,0,0,0,0-.01-.01,0,0,0,0-.01-.01,0,0,0,0-.01-.01,0,0,0,0-.01-.01,0,0,0,0-.01-.01,0,0,0,0-.01-.01,0,0,0,0-.01-.01,0,0,0,0-.01-.01,0,0,0,0-.01-.01,0,0,0,0-.01-.01,0,0,0,0-.01-.01,0,0,0,0-.01-.01,0,0,0,0-.01-.01,0,0,0,0-.01-.01,0,0,0,0-.01-.01,0,0,0,0-.01-.01,0,0,0,0-.01-.01,0,0,0,0-.01-.01,0,0,0,0-.01-.01,0,0,0,0-.01-.01,0,0,0,0-.01-.01,0,0,0,0-.01-.01,0,0,0,0-.01-.01,0,0,0,0-.01-.01,0,0,0,0-.01-.01,0,0,0,0-.01-.01,0,0,0,0-.01-.01-.5-.5-1.03-.91-1.6-1.23h4.28c0-1.39.13-2.3.38-2.73.25-.43.96-.93,2.12-1.51,3.56-1.78,5.35-4.87,5.35-9.27,0-3.56-1.24-6.55-3.73-8.96ZM324.93,222.22s.07,0,.11.01c0,.04.01.07.01.11,0,1.2-.75,2.13-2.24,2.79l-.7.31c.17-2.14,1.1-3.22,2.81-3.22Z"/>
          <path class="cls-13" d="M322.62,237.4c1.9,0,3.53.69,4.89,2.06,1.37,1.38,2.05,3.01,2.05,4.91s-.68,3.51-2.03,4.84c-1.36,1.33-2.99,1.99-4.91,1.99s-3.64-.64-4.92-1.93c-1.29-1.29-1.93-2.93-1.93-4.92s.67-3.58,2-4.92c1.34-1.35,2.95-2.02,4.85-2.02ZM327.82,235.86h-10.78v-1.83c0-2.42.27-4.21.81-5.36.54-1.15,1.53-2.05,2.96-2.69l1.98-.87c1.49-.66,2.24-1.59,2.24-2.79,0-.7-.24-1.29-.73-1.77-.48-.48-1.07-.73-1.77-.73-1.9,0-2.85,1.32-2.85,3.95h-10.02c0-3.52.81-6.4,2.44-8.63,1.2-1.65,2.76-2.95,4.68-3.92,1.92-.97,3.9-1.45,5.96-1.45,3.64,0,6.71,1.21,9.19,3.62,2.49,2.41,3.73,5.4,3.73,8.96,0,4.4-1.78,7.49-5.35,9.27-1.16.58-1.87,1.09-2.12,1.51-.25.43-.38,1.34-.38,2.73Z"/>
        </g>
        <polygon class="cls-8" points="154.63 158.17 157.86 166.9 166.58 170.13 157.86 173.36 154.63 182.08 151.4 173.36 142.67 170.13 151.4 166.9 154.63 158.17"/>
        <polygon class="cls-8" points="348.04 158.17 350.68 165.31 357.83 167.96 350.68 170.6 348.04 177.74 345.4 170.6 338.26 167.96 345.4 165.31 348.04 158.17"/>
        <g>
          <polygon class="cls-5" points="73.33 404.82 168.01 375.16 155.61 407.26 166.38 430.42 88.36 461.31 105.22 426.56 73.33 404.82"/>
          <polygon class="cls-5" points="433.03 407.09 338.35 377.42 350.74 409.53 339.98 432.69 418 463.57 401.13 428.83 433.03 407.09"/>
          <g>
            <path class="cls-10" d="M154.65,377.42v72.59c64.32-18.69,132.63-18.69,196.95,0v-72.59c-64.32-18.69-132.63-18.69-196.95,0Z"/>
            <path class="cls-1" d="M154.65,377.42v72.59c64.32-18.69,132.63-18.69,196.95,0v-72.59c-64.32-18.69-132.63-18.69-196.95,0Z"/>
          </g>
          <g>
            <g>
              <path class="cls-12" d="M214.42,393.47c1.48-.28,2.77.12,3.87,1.21.3.29.55.66.76,1.08,0,.17.01.33.01.51.01,0,.03,0,.04,0,0,.08,0,.15,0,.23.01,0,.03,0,.04,0,0,.08,0,.15,0,.23.01,0,.03,0,.04,0,0,.08,0,.15,0,.23.01,0,.03,0,.04,0,0,.08,0,.15,0,.23.01,0,.03,0,.04,0,0,.08,0,.15,0,.23.01,0,.03,0,.04,0,0,.08,0,.15,0,.23.01,0,.03,0,.04,0,0,.08,0,.15,0,.23.01,0,.03,0,.04,0,0,.08,0,.15,0,.23.01,0,.03,0,.04,0,0,.08,0,.15,0,.23.01,0,.03,0,.04,0,0,.08,0,.15,0,.23.01,0,.03,0,.04,0,0,.08,0,.15,0,.23.01,0,.03,0,.04,0,0,.08,0,.15,0,.23.01,0,.03,0,.04,0,0,.08,0,.15,0,.23.01,0,.03,0,.04,0,0,.08,0,.15,0,.23.01,0,.03,0,.04,0,0,.08,0,.15,0,.23.01,0,.03,0,.04,0,0,.08,0,.15,0,.23.01,0,.03,0,.04,0,0,.08,0,.15,0,.23.01,0,.03,0,.04,0,0,.08,0,.15,0,.23.01,0,.03,0,.04,0,0,.08,0,.15,0,.23.01,0,.03,0,.04,0,0,.08,0,.15,0,.23,4.09-.9,8.2-1.68,12.32-2.34-.1-1.3-.29-2.52-.56-3.66-.02-.07-.03-.15-.04-.22-.02-.07-.03-.15-.04-.22-.02-.07-.03-.15-.04-.22-.02-.07-.03-.15-.04-.22-.02-.07-.03-.15-.04-.22-.02-.07-.03-.15-.04-.22-.02-.07-.03-.15-.04-.22-.02-.07-.03-.15-.04-.22-.02-.07-.03-.15-.04-.22-.02-.07-.03-.15-.04-.22-.02-.07-.03-.15-.04-.22-.02-.07-.03-.15-.04-.22-.02-.07-.03-.15-.04-.22-.02-.07-.03-.15-.04-.22-.02-.07-.03-.15-.04-.22-.02-.07-.03-.15-.04-.22-.02-.07-.03-.15-.04-.22-.02-.07-.03-.15-.04-.22-.02-.07-.03-.15-.04-.22-.79-3.51-2.34-6.34-4.68-8.43-3.06-2.74-7.43-3.68-13.08-2.58-6.05,1.18-10.72,4.41-14.06,9.41-3.34,5.01-5,10.94-5,17.66,0,2.55.25,4.81.74,6.8.02.07.03.15.04.22.02.07.03.15.04.22.02.07.03.15.04.22.02.07.03.15.04.22.02.07.03.15.04.22.02.07.03.15.04.22.02.07.03.15.04.22.02.07.03.15.04.22.02.07.03.15.04.22.02.07.03.15.04.22.02.07.03.15.04.22.02.07.03.15.04.22.02.07.03.15.04.22.02.07.03.15.04.22.02.07.03.15.04.22.02.07.03.15.04.22.02.07.03.15.04.22.02.07.03.15.04.22.02.07.03.15.04.22.81,3.42,2.33,6.05,4.58,7.91,3.53,2.93,8.17,3.72,13.97,2.59,4.82-.93,8.9-2.96,12.23-6.21,3.33-3.25,5.28-7.48,5.85-12.8-.03,0-.05,0-.08,0,0-.08.02-.15.03-.22-.03,0-.05,0-.08,0,0-.08.02-.15.03-.22-.03,0-.05,0-.08,0,0-.08.02-.15.03-.22-.03,0-.05,0-.08,0,0-.08.02-.15.03-.22-.03,0-.05,0-.08,0,0-.08.02-.15.03-.22-.03,0-.05,0-.08,0,0-.08.02-.15.03-.22-.03,0-.05,0-.08,0,0-.08.02-.15.03-.22-.03,0-.05,0-.08,0,0-.08.02-.15.03-.22-.03,0-.05,0-.08,0,0-.08.02-.15.03-.22-.03,0-.05,0-.08,0,0-.08.02-.15.03-.22-.03,0-.05,0-.08,0,0-.08.02-.15.03-.22-.03,0-.05,0-.08,0,0-.08.02-.15.03-.22-.03,0-.05,0-.08,0,0-.08.02-.15.03-.22-.03,0-.05,0-.08,0,0-.08.02-.15.03-.22-.03,0-.05,0-.08,0,0-.08.02-.15.03-.22-.03,0-.05,0-.08,0,0-.08.02-.15.03-.22-.03,0-.05,0-.08,0,0-.08.02-.15.03-.22-.03,0-.05,0-.08,0,0-.08.02-.15.03-.22-.03,0-.05,0-.08,0,0-.08.02-.15.03-.22-.03,0-.05,0-.08,0,0-.08.02-.15.03-.22-4.03.19-8.06.49-12.07.91-.42,4.8-2.37,7.47-5.83,8.14-1.94.37-3.44-.15-4.51-1.59-.22-.3-.41-.68-.59-1.12-.09-1.1-.15-2.32-.15-3.69,0-8.33,2.05-12.98,6.18-13.78Z"/>
              <path class="cls-12" d="M315.2,399.61c-.01-.07-.03-.14-.04-.22-.01-.07-.03-.14-.04-.22-.01-.07-.03-.15-.04-.22-.01-.07-.03-.15-.04-.22-.01-.07-.03-.15-.04-.22-.01-.07-.03-.14-.04-.22-.01-.07-.03-.15-.04-.22-.01-.07-.03-.15-.04-.22-.01-.07-.03-.15-.04-.22-.01-.07-.03-.15-.04-.22-.01-.07-.03-.15-.04-.22-.01-.07-.03-.14-.04-.22-.01-.07-.03-.14-.04-.22-.01-.07-.03-.15-.04-.22-.01-.07-.03-.15-.04-.22-.01-.07-.03-.15-.04-.22-.01-.07-.03-.14-.04-.22-.01-.07-.03-.15-.04-.22-.01-.07-.03-.15-.04-.22-.32-1.68-.91-3.33-1.78-4.94-1.37-2.54-3.22-4.65-5.57-6.28-2.35-1.63-5.78-2.99-10.32-3.9-6.07-1.21-12.19-2.16-18.32-2.85v42.87s.03,0,.04,0v.21s.03,0,.04,0v.21s.03,0,.04,0v.21s.03,0,.04,0v.21s.03,0,.04,0v.21s.03,0,.04,0v.21s.03,0,.04,0v.21s.03,0,.04,0v.21s.03,0,.04,0v.21s.03,0,.04,0v.21s.03,0,.04,0v.21s.03,0,.04,0v.21s.03,0,.04,0v.21s.03,0,.04,0v.21s.03,0,.04,0v.21s.03,0,.04,0v.21s.03,0,.04,0v.21s.03,0,.04,0v.21s.03,0,.04,0v.21s.03,0,.04,0v.21c4.47.5,8.93,1.14,13.38,1.92v-15.58c2.48.44,4.95.91,7.41,1.44,4.72,1,8.47.7,11.27-1.06,2.8-1.76,4.19-4.63,4.19-8.72,0-1.05-.11-2.09-.32-3.12ZM292.45,393.54c1.61.28,3.22.58,4.82.9,1.97.39,3.38,1.12,4.26,2.14-.57,1.78-2.4,2.34-5.56,1.72-1.17-.23-2.34-.44-3.51-.65v-4.1Z"/>
              <path class="cls-12" d="M272.13,380.96s-.03,0-.04,0v-.21s-.03,0-.04,0v-.21s-.03,0-.04,0v-.21s-.03,0-.04,0v-.21s-.03,0-.04,0v-.21s-.03,0-.04,0v-.21s-.03,0-.04,0v-.21s-.03,0-.04,0v-.21s-.03,0-.04,0v-.21s-.03,0-.04,0v-.21s-.03,0-.04,0v-.21s-.03,0-.04,0v-.21s-.03,0-.04,0v-.21s-.03,0-.04,0v-.21s-.03,0-.04,0v-.21s-.03,0-.04,0v-.21s-.03,0-.04,0v-.21s-.03,0-.04,0v-.21s-.03,0-.04,0v-.21c-3.48-.27-6.97-.46-10.46-.57v25.09c0,2.49-.1,4.16-.3,5.02-.2.85-.81,1.6-1.84,2.26-1.02.66-2.33.98-3.94.98-1.92,0-3.32-.45-4.19-1.38-.16-.17-.31-.37-.44-.59v-27.07s-.03,0-.04,0v-.22s-.03,0-.04,0v-.22s-.03,0-.04,0v-.22s-.03,0-.04,0v-.22s-.03,0-.04,0v-.22s-.03,0-.04,0v-.22s-.03,0-.04,0v-.22s-.03,0-.04,0v-.22s-.03,0-.04,0v-.22s-.03,0-.04,0v-.22s-.03,0-.04,0v-.22s-.03,0-.04,0v-.22s-.03,0-.04,0v-.22s-.03,0-.04,0v-.22s-.03,0-.04,0v-.22s-.03,0-.04,0v-.22s-.03,0-.04,0v-.22s-.03,0-.04,0v-.22s-.03,0-.04,0v-.22s-.03,0-.04,0v-.22c-4.5.11-9.01.35-13.5.74v29.08c0,1.33.12,2.54.34,3.66.01.07.03.15.04.22.01.07.03.15.04.22.01.07.03.14.04.22.01.07.03.15.04.22.01.07.03.15.04.22.01.07.03.15.04.22.01.07.03.15.04.22.01.07.03.15.04.22.01.07.03.14.04.22.01.07.03.15.04.22.01.07.03.15.04.22.01.07.03.15.04.22.01.07.03.15.04.22.01.07.03.14.04.22.01.07.03.15.04.22.01.07.03.15.04.22.01.07.03.15.04.22.01.07.03.15.04.22.01.07.03.14.04.22.61,3.29,2.16,5.69,4.66,7.24,3.3,2.05,7.69,2.98,13.14,2.96,5.18,0,9.38-1.02,12.61-3.19,3.22-2.17,4.83-5.89,4.83-11.28v-28.39s-.03,0-.04,0v-.21Z"/>
            </g>
            <g>
              <path class="cls-8" d="M219.27,405.3c4.01-.42,8.03-.72,12.07-.91-.57,5.32-2.52,9.55-5.85,12.8-3.33,3.25-7.41,5.28-12.23,6.21-5.8,1.12-10.45.33-13.97-2.59-3.53-2.92-5.27-7.7-5.28-14.49,0-6.72,1.66-12.64,5-17.66,3.34-5.01,8.01-8.23,14.06-9.41,5.65-1.1,10.02-.15,13.08,2.58,3.06,2.74,4.79,6.73,5.19,11.88-4.12.66-8.22,1.44-12.32,2.34,0-2.87-.55-4.85-1.65-5.94-1.1-1.09-2.39-1.49-3.87-1.21-4.13.8-6.18,5.46-6.18,13.78,0,4.67.53,7.72,1.61,9.16,1.07,1.45,2.57,1.97,4.51,1.59,3.46-.66,5.41-3.33,5.83-8.14Z"/>
              <path class="cls-8" d="M271.26,376.61v28.39c0,5.39-1.61,9.11-4.83,11.28-3.22,2.18-7.42,3.18-12.61,3.19-5.46.01-9.84-.91-13.14-2.96-3.3-2.05-4.95-5.57-4.95-10.68,0-9.69,0-19.39,0-29.08,4.49-.39,8.99-.63,13.5-.74v27.54c0,2.05.44,3.54,1.31,4.46.88.93,2.27,1.38,4.19,1.38,1.6,0,2.92-.32,3.94-.98,1.02-.66,1.63-1.41,1.84-2.26.2-.85.3-2.52.3-5.02v-25.09c3.49.1,6.97.29,10.46.57Z"/>
              <path class="cls-8" d="M291.53,397.26c1.46.26,2.93.53,4.38.81,3.86.76,5.77-.2,5.77-3.06,0-2.67-1.77-4.44-5.34-5.15-1.6-.32-3.21-.62-4.82-.9v8.29ZM291.72,406.49v15.58c-4.44-.78-8.9-1.42-13.38-1.92,0-14.29,0-28.58,0-42.87,6.14.69,12.25,1.64,18.32,2.85,4.54.91,7.97,2.26,10.32,3.9,2.35,1.64,4.2,3.74,5.57,6.28,1.37,2.54,2.05,5.16,2.05,7.84,0,4.09-1.39,6.96-4.19,8.72-2.8,1.76-6.55,2.06-11.27,1.06-2.46-.52-4.94-1-7.41-1.44Z"/>
            </g>
          </g>
        </g>
        <g>
          <path class="cls-11" d="M446.64,366.05l-.98-.41c-5.89-2.43-11.85-4.86-17.81-7.26,4.14-14.04,8.28-28.07,12.42-42.07l.28-.96c1.74-5.92-1.3-12.2-7.02-14.51l-.95-.38c-7.46-3.02-15.06-6.04-22.56-8.96l-1-.39c-3.13-1.21-27.75-8.22-32.53-9.38l-.72-.17c-8.13-1.97-16.41-3.91-24.57-5.76l-.77-.18c-5.35-1.2-23.8-4.42-30.18-5.19l-.99-.12c-7.83-.95-15.75-1.85-23.55-2.69l-1-.11c-.21-.02-.42-.02-.63-.03-1.66-.89-3.52-1.4-5.45-1.44l-1.36-.03c-6.42-.12-12.95-.21-19.41-.26h-.75s-.06,0-.09,0c-5.38,0-21.64-.02-26.98.05h-.79c-8.26.1-16.63.25-24.88.47l-1.4.04c-1.69.05-3.32.47-4.81,1.17-.15.01-.29,0-.44.02l-1.01.11c-7.83.84-15.75,1.74-23.51,2.69l-1.03.13c-5.23.64-22.43,5.43-29.61,5.84h0c-3.23.18-6.65.7-10.18,1.55-13.1,3.13-26.39,6.47-39.49,9.93l-.98.26c-1.62.43-3.07,1.18-4.31,2.15-1.35.05-2.69.32-3.97.83l-.95.38c-17.2,6.85-34.56,14.07-51.6,21.44l-.98.42c-5.65,2.45-8.53,8.77-6.67,14.64l5.89,18.63c1.02,3.24,3.37,5.89,6.45,7.3,3.09,1.41,6.62,1.45,9.74.11l.93-.4c.64-.27,1.27-.55,1.91-.82,4.21,13.35,8.42,26.72,12.63,40.09l.29.94c1.01,3.2,3.31,5.83,6.34,7.26,1.61.76,3.36,1.14,5.1,1.14,1.54,0,3.08-.3,4.53-.89l.95-.39c6.93-2.82,14.01-5.66,21.06-8.43l.93-.36c2.49-.98,10.41-4.67,11.39-4.92l.98-.25c7.56-1.93,15.26-3.84,22.85-5.67l1.02-.24c3.2-.77,13.28-3.13,16.44-3.86l.68-.16c7.88-1.8,15.88-3.57,23.81-5.26.94.23,1.9.36,2.88.36.46,0,.93-.03,1.4-.08l1-.12c7.71-.9,15.51-1.76,23.18-2.55l.96-.1c5.79-.58,17.44-1.16,22.6-1.16.05,0,.1,0,.15,0h.71c7.84-.09,15.82-.11,23.72-.07h.74s.03,0,.05,0c5.05,0,16.5.72,21.68,1.25l1,.1c7.69.79,15.5,1.65,23.19,2.56l.97.11c.48.06.96.09,1.43.09.82,0,1.64-.09,2.44-.26,4.58.95,9.17,1.91,13.74,2.9l.69.15c5.34,1.15,22.35,4.98,27.24,6.13l.77.18c6.42,1.5,10.95,3.96,17.39,5.55.55.32,2.37,1.45,2.98,1.68l2.03.34c16.94,6.37,33.72,11.37,50.58,18.28l.96.39c1.46.6,3.01.9,4.55.9,1.78,0,3.55-.39,5.18-1.18,3.06-1.47,5.36-4.16,6.32-7.41l5.69-19.22c1.73-5.88-1.25-12.11-6.9-14.47Z"/>
          <g>
            <g>
              <path class="cls-8" d="M87.62,326.47c5.64,17.92,11.27,35.87,16.91,53.85-7.06,2.78-14.12,5.61-21.17,8.48-5.63-17.91-11.27-35.78-16.9-53.63-5.02,2.1-10.05,4.23-15.07,6.38-1.77-5.61-3.54-11.21-5.32-16.81,17.08-7.38,34.18-14.48,51.3-21.3,1.78,5.66,3.55,11.32,5.33,16.98-5.03,1.99-10.06,4-15.09,6.04Z"/>
              <path class="cls-8" d="M97.38,303.46c1.78,5.66,3.55,11.32,5.33,16.98-5.03,1.99-10.06,4-15.09,6.04,5.64,17.92,11.27,35.87,16.91,53.85-7.06,2.78-14.12,5.61-21.17,8.48-5.63-17.91-11.27-35.78-16.9-53.63-5.02,2.1-10.05,4.23-15.07,6.38-1.77-5.61-3.54-11.21-5.32-16.81,17.08-7.38,34.18-14.48,51.3-21.3h0ZM98.05,302.15c-.32.13-.64.25-.96.38-17.12,6.82-34.22,13.93-51.3,21.31-.32.14-.64.27-.95.41.1.31.19.61.29.92,1.77,5.6,3.54,11.2,5.31,16.8.1.31.19.61.29.92.32-.14.64-.27.95-.41,4.7-2.02,9.41-4.01,14.11-5.98,5.53,17.54,11.07,35.1,16.6,52.69.1.31.19.62.29.93.32-.13.64-.26.95-.39,7.05-2.87,14.11-5.7,21.17-8.48.32-.13.64-.25.96-.38-.1-.31-.19-.62-.29-.93-5.54-17.68-11.08-35.32-16.62-52.94,4.71-1.9,9.42-3.79,14.14-5.65.32-.13.64-.25.96-.38-.1-.31-.19-.62-.29-.93-1.78-5.66-3.55-11.32-5.33-16.98-.1-.31-.19-.62-.29-.93h0Z"/>
            </g>
            <g>
              <path class="cls-8" d="M186.24,358.64c-8.53,1.81-17.05,3.7-25.57,5.65-5.35-8.64-10.7-17.26-16.05-25.84-2.42.58-4.85,1.17-7.27,1.76,1.69,9.45,3.39,18.91,5.08,28.37-7.68,1.85-15.36,3.75-23.04,5.72-4.42-24.67-8.85-49.33-13.27-73.96,13.06-3.45,26.13-6.73,39.2-9.86,8.66-2.07,15.74-1.6,21.25,1.34,5.51,2.94,8.85,7.72,10.02,14.3.77,4.29.56,8.28-.61,11.96-1.17,3.68-4.22,7.36-9.13,11.07,6.46,9.79,12.93,19.62,19.39,29.5ZM134.51,324.34c3.28-.81,6.56-1.6,9.85-2.39,2.9-.69,5.12-1.84,6.67-3.45,1.55-1.61,2.11-3.58,1.7-5.9-.85-4.75-4.23-6.44-10.13-5.02-3.54.85-7.08,1.71-10.62,2.59.85,4.72,1.69,9.45,2.54,14.18Z"/>
              <path class="cls-8" d="M153.22,289.26c5.17-.29,9.62.56,13.35,2.55,5.51,2.94,8.85,7.72,10.02,14.3.77,4.29.56,8.28-.61,11.96-1.17,3.68-4.22,7.36-9.13,11.07,6.46,9.79,12.93,19.62,19.39,29.5-8.53,1.81-17.05,3.7-25.57,5.65-5.35-8.64-10.7-17.26-16.05-25.84-2.42.58-4.85,1.17-7.27,1.76,1.69,9.45,3.39,18.91,5.08,28.37-7.68,1.85-15.36,3.75-23.04,5.72-4.42-24.67-8.85-49.33-13.27-73.96,13.06-3.45,26.13-6.73,39.2-9.86,2.8-.67,5.43-1.07,7.9-1.21h0ZM134.51,324.34c3.28-.81,6.56-1.6,9.85-2.39,2.9-.69,5.12-1.84,6.67-3.45,1.55-1.61,2.11-3.58,1.7-5.9-.7-3.9-3.1-5.74-7.21-5.49-.89.06-1.87.21-2.92.46-3.54.85-7.08,1.71-10.62,2.59.85,4.72,1.69,9.45,2.54,14.18h0ZM153.22,288.26s0,0,0,0c-2.52.14-5.23.56-8.07,1.24-13.08,3.12-26.14,6.41-39.2,9.86-.33.09-.66.17-.98.26.06.32.12.65.17.97,4.42,24.63,8.84,49.28,13.27,73.95.06.32.12.65.17.97.33-.08.66-.17.98-.25,7.68-1.96,15.36-3.86,23.04-5.71.33-.08.66-.16.99-.24-.06-.32-.12-.65-.17-.97-1.64-9.14-3.27-18.27-4.9-27.4,1.87-.45,3.74-.91,5.61-1.35,5.23,8.4,10.46,16.82,15.7,25.27.12.19.24.38.35.57.23-.05.45-.1.68-.16,8.52-1.95,17.05-3.83,25.57-5.65.49-.1.98-.21,1.48-.31-.27-.41-.54-.82-.81-1.23-6.3-9.62-12.59-19.2-18.89-28.74,4.62-3.64,7.56-7.32,8.73-11,1.22-3.82,1.44-8,.65-12.44-1.22-6.85-4.76-11.91-10.5-14.98-3.87-2.06-8.53-2.96-13.85-2.66t0,0ZM133.13,310.89c3.21-.79,6.42-1.57,9.63-2.35.99-.24,1.92-.39,2.75-.44,3.63-.22,5.61,1.28,6.23,4.72.36,2-.1,3.63-1.41,5-1.39,1.45-3.46,2.51-6.14,3.15-2.95.71-5.91,1.42-8.86,2.15-.73-4.08-1.46-8.15-2.19-12.23h0Z"/>
            </g>
            <g>
              <path class="cls-8" d="M208.05,280.55c2.14,25.27,4.29,50.54,6.43,75.82-7.79.8-15.57,1.66-23.36,2.57-2.14-25.25-4.29-50.49-6.43-75.73,7.78-.95,15.57-1.83,23.35-2.67Z"/>
              <path class="cls-8" d="M208.05,280.55c2.14,25.27,4.29,50.54,6.43,75.82-7.79.8-15.57,1.66-23.36,2.57-2.14-25.25-4.29-50.49-6.43-75.73,7.78-.95,15.57-1.83,23.35-2.67h0ZM208.96,279.45c-.33.04-.67.07-1,.11-7.79.83-15.57,1.72-23.35,2.67-.33.04-.67.08-1,.12.03.33.06.66.08.99,2.14,25.24,4.29,50.48,6.43,75.72.03.33.06.66.08.99.33-.04.67-.08,1-.12,7.78-.91,15.57-1.77,23.36-2.57.33-.03.67-.07,1-.1-.03-.33-.06-.66-.08-.99-2.14-25.28-4.29-50.56-6.43-75.83-.03-.33-.06-.66-.08-.99t0,0Z"/>
            </g>
            <g>
              <path class="cls-8" d="M287.04,279.02c-7.69,25.26-15.38,50.58-23.07,75.95-7.96-.04-15.93-.02-23.89.07-8.47-25.32-16.94-50.58-25.4-75.76,8.23-.22,16.47-.37,24.7-.46,4.14,13.8,8.28,27.63,12.43,41.46.84,2.45,1.6,4.87,2.25,7.25,4.57-16.28,9.14-32.53,13.71-48.77,6.42.05,12.85.13,19.27.26Z"/>
              <path class="cls-8" d="M287.04,279.02c-7.69,25.26-15.38,50.58-23.07,75.95-7.96-.04-15.93-.02-23.89.07-8.47-25.32-16.94-50.58-25.4-75.76,8.23-.22,16.47-.37,24.7-.46,4.14,13.8,8.28,27.63,12.43,41.46.84,2.45,1.6,4.87,2.25,7.25,4.57-16.28,9.14-32.53,13.71-48.77,6.42.05,12.85.13,19.27.26h0ZM288.39,278.05c-.45,0-.91-.02-1.36-.03-6.42-.12-12.85-.21-19.27-.26-.25,0-.5,0-.75,0-.07.24-.14.48-.2.72-4.26,15.12-8.51,30.26-12.77,45.41-.4-1.3-.83-2.62-1.28-3.94-4.14-13.83-8.28-27.64-12.41-41.43-.07-.24-.14-.48-.22-.72-.25,0-.5,0-.75,0-8.23.09-16.47.24-24.7.46-.46.01-.92.02-1.38.04.15.43.29.86.44,1.3,8.47,25.18,16.94,50.43,25.4,75.75.08.23.15.46.23.69.24,0,.49,0,.73,0,7.96-.08,15.93-.1,23.89-.07.25,0,.49,0,.74,0,.07-.23.14-.47.21-.7,7.69-25.37,15.38-50.68,23.07-75.93.13-.43.26-.86.39-1.29h0Z"/>
            </g>
            <g>
              <path class="cls-8" d="M317.73,283.22c-1.89,25.25-3.78,50.5-5.67,75.76-7.79-.92-15.58-1.78-23.37-2.58,1.89-25.28,3.78-50.56,5.67-75.84,7.79.83,15.58,1.72,23.36,2.66Z"/>
              <path class="cls-8" d="M294.37,280.56c7.79.83,15.58,1.72,23.36,2.66-1.89,25.25-3.78,50.5-5.67,75.76-7.79-.92-15.58-1.78-23.37-2.58,1.89-25.28,3.78-50.56,5.67-75.84h0ZM293.44,279.46c-.02.33-.05.66-.07.99-1.89,25.28-3.78,50.56-5.67,75.84-.02.33-.05.66-.07,1,.33.03.67.07,1,.1,7.79.8,15.58,1.66,23.37,2.58.33.04.67.08,1,.12.02-.33.05-.66.07-.99,1.89-25.25,3.78-50.51,5.67-75.75.02-.33.05-.66.07-.99-.33-.04-.67-.08-1-.12-7.79-.95-15.58-1.83-23.36-2.66-.33-.04-.67-.07-1-.11h0Z"/>
            </g>
            <g>
              <path class="cls-8" d="M360.75,368.53c-.63-5.22-1.25-10.44-1.88-15.65-6.72-1.57-13.44-3.09-20.17-4.57-2.3,4.56-4.6,9.13-6.9,13.71-6.26-1.35-12.52-2.66-18.78-3.94,11.78-23.33,23.55-46.53,35.32-69.59,8.14,1.84,16.29,3.75,24.42,5.72,3.85,26.66,7.69,53.34,11.54,80.03-7.85-1.96-15.71-3.86-23.56-5.7ZM345.27,332.91c4.06.91,8.12,1.84,12.18,2.78-.86-7.67-1.73-15.33-2.59-22.99-3.2,6.73-6.39,13.46-9.59,20.21Z"/>
              <path class="cls-8" d="M348.35,288.47c8.14,1.84,16.29,3.75,24.42,5.72,3.85,26.66,7.69,53.34,11.54,80.03-7.85-1.96-15.71-3.86-23.56-5.7-.63-5.22-1.25-10.44-1.88-15.65-6.72-1.57-13.44-3.09-20.17-4.57-2.3,4.56-4.6,9.13-6.9,13.71-6.26-1.35-12.52-2.66-18.78-3.94,11.78-23.33,23.55-46.53,35.32-69.59h0ZM357.45,335.69c-.86-7.67-1.73-15.33-2.59-22.99-3.2,6.73-6.39,13.46-9.59,20.21,4.06.91,8.12,1.84,12.18,2.78h0ZM347.78,287.33c-.11.21-.22.43-.33.64-11.77,23.07-23.54,46.28-35.32,69.61-.2.4-.4.79-.6,1.19.45.09.89.18,1.34.27,6.26,1.28,12.52,2.59,18.78,3.94.24.05.49.11.73.16.11-.22.22-.43.33-.65,2.19-4.36,4.38-8.71,6.57-13.06,6.23,1.38,12.46,2.79,18.69,4.24.6,4.97,1.19,9.93,1.79,14.9.03.25.06.5.09.75.25.06.5.12.74.17,7.86,1.84,15.71,3.74,23.56,5.7.45.11.9.22,1.34.34-.07-.46-.13-.91-.2-1.37-3.85-26.69-7.69-53.37-11.54-80.04-.04-.25-.07-.49-.11-.74-.24-.06-.48-.12-.72-.18-8.14-1.97-16.28-3.88-24.42-5.73-.24-.06-.49-.11-.73-.16t0,0ZM346.73,332.22c2.51-5.3,5.03-10.6,7.54-15.89.68,6.03,1.36,12.05,2.04,18.08-3.19-.74-6.38-1.47-9.58-2.19t0,0Z"/>
            </g>
            <g>
              <path class="cls-8" d="M440.8,377.66c-1.71,5.78-3.42,11.56-5.13,17.35-17.06-6.99-34.15-13.7-51.26-20.14,6.99-23.8,13.98-47.56,20.96-71.27,7.48,2.92,14.96,5.89,22.44,8.91-5.26,17.81-10.53,35.66-15.79,53.52,9.61,3.78,19.2,7.66,28.79,11.62Z"/>
              <path class="cls-8" d="M405.36,303.61c7.48,2.92,14.96,5.89,22.44,8.91-5.26,17.81-10.53,35.66-15.79,53.52,9.61,3.78,19.2,7.66,28.79,11.62-1.71,5.78-3.42,11.56-5.13,17.35-17.06-6.99-34.15-13.7-51.26-20.14,6.99-23.8,13.98-47.56,20.96-71.27h0ZM404.68,302.3c-.09.31-.18.62-.27.93-6.98,23.71-13.97,47.47-20.96,71.28-.09.31-.18.62-.28.94.32.12.64.24.96.36,17.11,6.43,34.2,13.14,51.26,20.13.32.13.64.26.96.39.09-.31.18-.62.27-.93,1.71-5.78,3.42-11.57,5.13-17.35.09-.31.18-.62.27-.93-.32-.13-.64-.26-.96-.4-9.27-3.83-18.55-7.58-27.83-11.25,5.18-17.55,10.35-35.08,15.52-52.58.09-.31.18-.62.27-.93-.32-.13-.64-.26-.96-.39-7.47-3.02-14.95-6-22.44-8.91-.32-.12-.64-.25-.96-.37h0Z"/>
            </g>
          </g>
        </g>
      </g>
    </g>
  </g>
</svg>